<?xml version="1.0" encoding="utf-8"?>
<!-- Generator: Adobe Illustrator 25.2.0, SVG Export Plug-In . SVG Version: 6.00 Build 0)  -->
<svg version="1.1" id="Layer_1" xmlns="http://www.w3.org/2000/svg" xmlns:xlink="http://www.w3.org/1999/xlink" x="0px" y="0px"
	 viewBox="0 0 3000 2000" style="enable-background:new 0 0 3000 2000;" xml:space="preserve">
<style type="text/css">
	.st0{fill:none;}
	.st1{display:none;fill:#414042;}
	.st2{font-family:'BerlinSansFB-Reg';}
	.st3{font-size:235px;}
	.st4{letter-spacing:78;}
	.st5{display:none;fill:#F7F7F7;}
	.st6{fill:#006633;}
	.st7{fill:#7DC33E;}
	.st8{fill:#9AC938;}
	.st9{display:none;}
	.st10{display:inline;}
	.st11{fill:#333333;}
	.st12{display:inline;fill:#333333;}
</style>
<rect x="687.74" y="1279.74" class="st0" width="1641.94" height="193.55"/>
<text transform="matrix(1 0 0 1 694.4346 1457.708)" class="st1 st2 st3 st4">BH Matrix</text>
<g>
	<rect x="-1203" y="-497" class="st5" width="5406" height="3604"/>
	<g>
		<g>
			<polygon class="st6" points="1175.93,1578.65 1035.38,1626.17 1035.38,358.16 1175.93,400.2 			"/>
			<polygon class="st7" points="1350.73,1578.65 1210.18,1626.17 1210.18,358.16 1350.73,400.2 			"/>
			<path class="st8" d="M1434.08,376.24l-60.82-18.07v606.37v52.26v609.38l7.15-2.29l583.9-177.32v-429.78v-52.26V531.15
				L1434.08,376.24z M1515.62,502.7l151.37,44.22v-31.2h27.03v39.09v0.27v409.34h-178.4V502.7z M1515.62,1016.68h178.4v409.1
				l-178.4,54.46V1016.68z M1890.44,1366.4l-126.14,38.31v31.84h-18.02v-419.87h144.16V1366.4z M1746.28,964.42V570.35l144.16,41.86
				v352.21H1746.28z"/>
		</g>
		<g class="st9">
			<g class="st10">
				<path class="st11" d="M277.43,2018.45l22.79,20.44c-27.84,25.39-57.3,38.09-88.38,38.09c-33.23,0-61.57-11.71-85-35.15
					c-23.43-23.43-35.15-51.76-35.15-85c0-33.14,11.71-61.47,35.15-85c23.43-23.53,51.76-35.29,85-35.29
					c31.08,0,60.54,12.7,88.38,38.09l-22.79,20.74c-20.98-18.63-42.84-27.94-65.59-27.94c-24.61,0-45.66,8.73-63.16,26.18
					c-17.5,17.45-26.25,38.53-26.25,63.23c0,24.8,8.75,45.93,26.25,63.38c17.5,17.45,38.55,26.18,63.16,26.18
					C234.58,2046.39,256.45,2037.07,277.43,2018.45z"/>
				<path class="st11" d="M605.89,1999.18H578.1v75.29h-30.44v-235.29h66.76c18.92,2.55,34.9,10.34,47.94,23.38
					c15.59,15.69,23.38,34.51,23.38,56.47c0,22.16-7.79,41.08-23.38,56.76c-10.79,10.79-19.02,16.86-24.71,18.23l52.21,80.44h-36.91
					L605.89,1999.18z M578.1,1869.77v98.82h27.79c13.53,0,25.12-4.83,34.78-14.48c9.65-9.66,14.49-21.35,14.49-35.07
					c0-13.63-4.83-25.24-14.49-34.85c-9.66-9.61-21.25-14.41-34.78-14.41H578.1z"/>
				<path class="st11" d="M1057.45,1839.18v30.44h-96.32v71.91h96.32v30.44h-96.32v71.91h96.32v30.59H930.68v-235.29H1057.45z"/>
				<path class="st11" d="M1396.06,1839.18l85.59,235.29h-32.35l-30.29-83.23h-62.35l-30.15,83.23H1294l85.59-235.29H1396.06z
					 M1407.97,1960.8l-20.15-55.15l-20,55.15H1407.97z"/>
				<path class="st11" d="M1781.88,1869.62v204.85h-30.59v-204.85h-54.85v-30.44h140.29v30.44H1781.88z"/>
				<path class="st11" d="M2110.34,1839.18v235.29h-30.44v-235.29H2110.34z"/>
				<path class="st11" d="M2439.11,2074.47l-85.44-235.29h32.35l61.32,168.67l61.47-168.67h32.5l-85.73,235.29H2439.11z"/>
				<path class="st11" d="M2908.31,1839.18v30.44h-96.32v71.91h96.32v30.44h-96.32v71.91h96.32v30.59h-126.76v-235.29H2908.31z"/>
			</g>
			<g>
				<path class="st12" d="M222.11,2230.22l8.42,7.55c-10.28,9.38-21.16,14.07-32.64,14.07c-12.27,0-22.74-4.33-31.39-12.98
					c-8.65-8.65-12.98-19.12-12.98-31.39c0-12.24,4.33-22.7,12.98-31.39c8.65-8.69,19.12-13.03,31.39-13.03
					c11.48,0,22.36,4.69,32.64,14.07l-8.42,7.66c-7.75-6.88-15.82-10.32-24.22-10.32c-9.09,0-16.86,3.22-23.33,9.67
					c-6.46,6.45-9.7,14.23-9.7,23.35c0,9.16,3.23,16.96,9.7,23.41c6.46,6.45,14.24,9.67,23.33,9.67
					C206.29,2240.54,214.36,2237.1,222.11,2230.22z"/>
				<path class="st12" d="M396.49,2175.91c8.69,8.69,13.03,19.17,13.03,31.45c0,12.27-4.34,22.76-13.03,31.45
					c-8.69,8.69-19.17,13.04-31.45,13.04c-12.27,0-22.76-4.34-31.45-13.04c-8.69-8.69-13.04-19.17-13.04-31.45
					c0-12.28,4.34-22.76,13.04-31.45c8.69-8.69,19.17-13.03,31.45-13.03C377.31,2162.87,387.8,2167.22,396.49,2175.91z
					 M365.04,2174.22c-9.16,0-16.97,3.23-23.44,9.7c-6.46,6.46-9.7,14.28-9.7,23.44s3.24,16.98,9.72,23.46
					c6.48,6.48,14.28,9.72,23.41,9.72c9.16,0,16.97-3.24,23.44-9.72c6.46-6.48,9.69-14.3,9.69-23.46s-3.23-16.97-9.69-23.44
					C382.01,2177.46,374.2,2174.22,365.04,2174.22z"/>
				<path class="st12" d="M515.3,2164.01l28.19,48.72l28.08-48.72h10.26v86.9h-11.24v-62.79l-27.1,46.93l-27.21-46.93v62.79h-11.24
					v-86.9H515.3z"/>
				<path class="st12" d="M689.89,2223.11v27.81h-11.24v-86.9h24.66c6.99,0.94,12.89,3.82,17.71,8.64
					c5.76,5.79,8.64,12.75,8.64,20.86c0,8.18-2.88,15.16-8.64,20.94c-5.76,5.78-12.71,8.66-20.86,8.66H689.89z M689.89,2175.31v36.5
					h10.27c5,0,9.28-1.78,12.85-5.35c3.57-3.57,5.35-7.88,5.35-12.95c0-5.03-1.78-9.32-5.35-12.87c-3.57-3.55-7.85-5.32-12.85-5.32
					H689.89z"/>
				<path class="st12" d="M843.85,2164.01l31.61,86.9h-11.95l-11.19-30.74h-23.03l-11.13,30.74h-12l31.61-86.9H843.85z
					 M848.25,2208.93l-7.44-20.37l-7.39,20.37H848.25z"/>
				<path class="st12" d="M964.18,2164.01h10.27l35.85,62.02v-62.02h11.3v86.9h-9.83l-36.34-62.79v62.79h-11.24V2164.01z"/>
				<path class="st12" d="M1140.35,2216.05l-30.03-52.03h12.93l22.7,39.32l22.76-39.32h12.98l-30.09,52.03v34.87h-11.24V2216.05z"/>
				<path class="st12" d="M1408.83,2206.32c-6.16-2.06-11.14-5.01-14.96-8.83c-3.82-3.82-5.73-8.55-5.73-14.2
					c0-5.54,1.98-10.3,5.95-14.28c3.96-3.98,8.77-5.97,14.42-5.97c5.57,0,10.35,1.97,14.34,5.92c2.24,2.17,4.13,5.63,5.65,10.37
					l-10.21,4.02c-1.23-3.33-2.35-5.5-3.37-6.52c-1.77-1.74-3.91-2.61-6.41-2.61c-2.54,0-4.69,0.88-6.46,2.63
					c-1.77,1.76-2.66,3.9-2.66,6.44c0,2.54,0.89,4.69,2.66,6.46c1.99,1.96,4.74,3.75,8.26,5.38c6.81,2.21,12.58,5.68,17.33,10.43
					c5.32,5.25,7.98,11.62,7.98,19.12c0,7.5-2.65,13.9-7.96,19.2c-5.31,5.31-11.69,7.96-19.15,7.96c-7.5,0-13.89-2.66-19.17-7.98
					c-4.24-4.24-6.92-10.08-8.04-17.54l10.92-3.96c0.69,6.41,2.37,10.95,5.05,13.63c3.11,3.11,6.86,4.67,11.24,4.67
					c4.38,0,8.13-1.56,11.24-4.67c3.11-3.11,4.67-6.88,4.67-11.3c0-4.38-1.56-8.13-4.67-11.24
					C1416.77,2210.47,1413.13,2208.1,1408.83,2206.32z"/>
				<path class="st12" d="M1524.38,2250.91v-86.9h11.24v75.6h31.07v11.3H1524.38z"/>
				<path class="st12" d="M1728.19,2175.91c8.69,8.69,13.04,19.17,13.04,31.45c0,12.27-4.34,22.76-13.04,31.45
					c-8.69,8.69-19.17,13.04-31.45,13.04c-12.27,0-22.76-4.34-31.45-13.04c-8.69-8.69-13.03-19.17-13.03-31.45
					c0-12.28,4.34-22.76,13.03-31.45c8.69-8.69,19.17-13.03,31.45-13.03C1709.02,2162.87,1719.5,2167.22,1728.19,2175.91z
					 M1696.74,2174.22c-9.16,0-16.97,3.23-23.43,9.7c-6.46,6.46-9.7,14.28-9.7,23.44s3.24,16.98,9.72,23.46
					c6.48,6.48,14.28,9.72,23.41,9.72c9.16,0,16.97-3.24,23.44-9.72c6.46-6.48,9.69-14.3,9.69-23.46s-3.23-16.97-9.69-23.44
					C1713.72,2177.46,1705.9,2174.22,1696.74,2174.22z"/>
				<path class="st12" d="M1907.78,2239.02c-8.94,8.55-19.17,12.82-30.69,12.82c-12.27,0-22.74-4.33-31.39-12.98
					c-8.65-8.65-12.98-19.12-12.98-31.39c0-12.24,4.33-22.7,12.98-31.39c8.65-8.69,19.12-13.03,31.39-13.03
					c11.48,0,22.36,4.69,32.64,14.07l-8.42,7.66c-7.75-6.88-15.82-10.32-24.22-10.32c-9.09,0-16.86,3.22-23.33,9.67
					c-6.46,6.45-9.7,14.23-9.7,23.35c0,9.16,3.23,16.96,9.7,23.41c6.46,6.45,14.24,9.67,23.33,9.67c7.82,0,14.3-2.06,19.44-6.19
					v-26.23h11.24V2239.02z"/>
				<path class="st12" d="M2034.8,2164.01l31.61,86.9h-11.95l-11.19-30.74h-23.03l-11.13,30.74h-12l31.61-86.9H2034.8z
					 M2039.19,2208.93l-7.44-20.37l-7.39,20.37H2039.19z"/>
				<path class="st12" d="M2155.13,2164.01h10.26l35.85,62.02v-62.02h11.3v86.9h-9.83l-36.34-62.79v62.79h-11.24V2164.01z"/>
				<path class="st12" d="M2434.25,2214.96v35.96h-11.24v-86.9h11.24v39.7h26.83v-39.7h11.24v86.9h-11.24v-35.96H2434.25z"/>
				<path class="st12" d="M2613.3,2164.01v11.24h-35.57v26.56h35.57v11.24h-35.57v26.56h35.57v11.3h-46.82v-86.9H2613.3z"/>
				<path class="st12" d="M2727.6,2223.11h-10.26v27.81h-11.24v-86.9h24.66c6.99,0.94,12.89,3.82,17.71,8.64
					c5.76,5.79,8.64,12.75,8.64,20.86c0,8.18-2.88,15.17-8.64,20.96c-3.98,3.98-7.02,6.23-9.12,6.74l19.28,29.71h-13.63
					L2727.6,2223.11z M2717.34,2175.31v36.5h10.26c5,0,9.28-1.78,12.85-5.35c3.57-3.57,5.35-7.88,5.35-12.95
					c0-5.03-1.78-9.32-5.35-12.87c-3.57-3.55-7.85-5.32-12.85-5.32H2717.34z"/>
				<path class="st12" d="M2894.37,2164.01v11.24h-35.57v26.56h35.57v11.24h-35.57v26.56h35.57v11.3h-46.82v-86.9H2894.37z"/>
			</g>
		</g>
	</g>
</g>
</svg>
