<?xml version="1.0" encoding="utf-8"?>
<!-- Generator: Adobe Illustrator 25.2.0, SVG Export Plug-In . SVG Version: 6.00 Build 0)  -->
<svg version="1.1" id="Layer_1" xmlns="http://www.w3.org/2000/svg" xmlns:xlink="http://www.w3.org/1999/xlink" x="0px" y="0px"
	 viewBox="0 0 708.7 708.7" style="enable-background:new 0 0 708.7 708.7;" xml:space="preserve">
<style type="text/css">
	.st0{fill:url(#SVGID_1_);}
	.st1{fill:#C1C1C1;}
	.st2{fill:#1D99B3;}
	.st3{fill:#002B6A;}
	.st4{opacity:0.71;fill:#1D99B3;enable-background:new    ;}
	.st5{fill:#E8682D;}
	.st6{opacity:0.52;fill:#1D99B3;enable-background:new    ;}
	.st7{opacity:0.71;fill:#BFCED5;enable-background:new    ;}
	.st8{fill:#FCFCF6;}
	.st9{fill:#ACBDCF;}
	.st10{opacity:5.000000e-02;fill:#BEC3BE;enable-background:new    ;}
	.st11{opacity:0.1;fill:#BEC3BE;enable-background:new    ;}
	.st12{opacity:0.15;fill:#BEC3BE;enable-background:new    ;}
	.st13{opacity:0.2;fill:#BEC3BE;enable-background:new    ;}
	.st14{opacity:0.25;fill:#BEC3BE;enable-background:new    ;}
	.st15{opacity:0.3;fill:#BEC3BE;enable-background:new    ;}
	.st16{opacity:0.35;fill:#BEC3BE;enable-background:new    ;}
	.st17{opacity:0.4;fill:#BEC3BE;enable-background:new    ;}
	.st18{opacity:0.45;fill:#BEC3BE;enable-background:new    ;}
	.st19{opacity:0.5;fill:#BEC3BE;enable-background:new    ;}
	.st20{opacity:0.55;fill:#BEC3BE;enable-background:new    ;}
	.st21{opacity:0.6;fill:#BEC3BE;enable-background:new    ;}
	.st22{opacity:0.65;fill:#BEC3BE;enable-background:new    ;}
	.st23{opacity:0.7;fill:#BEC3BE;enable-background:new    ;}
	.st24{opacity:0.75;fill:#BEC3BE;enable-background:new    ;}
	.st25{opacity:0.8;fill:#BEC3BE;enable-background:new    ;}
	.st26{opacity:0.85;fill:#BEC3BE;enable-background:new    ;}
	.st27{opacity:0.9;fill:#BEC3BE;enable-background:new    ;}
	.st28{opacity:0.95;fill:#BEC3BE;enable-background:new    ;}
	.st29{fill:#BEC3BE;}
	.st30{fill:#FFFFFF;}
	.st31{opacity:0.63;}
	.st32{opacity:5.000000e-02;fill:#1D99B3;enable-background:new    ;}
	.st33{opacity:0.1;fill:#1D99B3;enable-background:new    ;}
	.st34{opacity:0.15;fill:#1D99B3;enable-background:new    ;}
	.st35{opacity:0.2;fill:#1D99B3;enable-background:new    ;}
	.st36{opacity:0.25;fill:#1D99B3;enable-background:new    ;}
	.st37{opacity:0.3;fill:#1D99B3;enable-background:new    ;}
	.st38{opacity:0.35;fill:#1D99B3;enable-background:new    ;}
	.st39{opacity:0.4;fill:#1D99B3;enable-background:new    ;}
	.st40{opacity:0.45;fill:#1D99B3;enable-background:new    ;}
	.st41{opacity:0.5;fill:#1D99B3;enable-background:new    ;}
	.st42{opacity:0.55;fill:#1D99B3;enable-background:new    ;}
	.st43{opacity:0.6;fill:#1D99B3;enable-background:new    ;}
	.st44{opacity:0.65;fill:#1D99B3;enable-background:new    ;}
	.st45{opacity:0.7;fill:#1D99B3;enable-background:new    ;}
	.st46{opacity:0.75;fill:#1D99B3;enable-background:new    ;}
	.st47{opacity:0.8;fill:#1D99B3;enable-background:new    ;}
	.st48{opacity:0.85;fill:#1D99B3;enable-background:new    ;}
	.st49{opacity:0.9;fill:#1D99B3;enable-background:new    ;}
	.st50{opacity:0.95;fill:#1D99B3;enable-background:new    ;}
	.st51{fill:#9B9C9E;}
	.st52{fill:#405C96;}
	.st53{fill:#D1DBDF;}
	.st54{fill:#BFCED5;}
	.st55{opacity:0.75;fill:#405C96;enable-background:new    ;}
	.st56{opacity:0.56;fill:#FCFCF6;enable-background:new    ;}
</style>
<g>
	<g id="Layer_1_1_">
		<linearGradient id="SVGID_1_" gradientUnits="userSpaceOnUse" x1="0" y1="354.33" x2="708.66" y2="354.33">
			<stop  offset="1" style="stop-color:#FFFFFF"/>
			<stop  offset="1" style="stop-color:#000000"/>
		</linearGradient>
		<rect class="st0" width="708.7" height="708.7"/>
		
			<rect x="505.9" y="427.6" transform="matrix(0.7071 -0.7071 0.7071 0.7071 -153.3288 485.9499)" class="st1" width="8" height="1"/>
		
			<rect x="525.7" y="407.8" transform="matrix(0.7071 -0.7071 0.7071 0.7071 -133.5307 494.158)" class="st1" width="8" height="1"/>
		
			<rect x="515.8" y="417.7" transform="matrix(0.7071 -0.7071 0.7071 0.7071 -143.4312 490.0575)" class="st1" width="8" height="1"/>
		
			<rect x="486.1" y="447.4" transform="matrix(0.7071 -0.7071 0.7071 0.7071 -173.1298 477.7489)" class="st1" width="8" height="1"/>
		<rect x="496" y="437.5" transform="matrix(0.7071 -0.7071 0.7071 0.7071 -163.2646 481.8641)" class="st1" width="8" height="1"/>
		
			<rect x="480.5" y="455.5" transform="matrix(0.7071 -0.7071 0.7071 0.7071 -181.261 474.3877)" class="st1" width="3" height="1"/>
		<rect x="565.3" y="368.2" transform="matrix(0.7071 -0.7071 0.7071 0.7071 -93.964 510.5747)" class="st1" width="8" height="1"/>
		
			<rect x="555.4" y="378.1" transform="matrix(0.7071 -0.7071 0.7071 0.7071 -103.8321 506.4525)" class="st1" width="8" height="1"/>
		
			<rect x="545.5" y="387.9" transform="matrix(0.7071 -0.7071 0.7071 0.7071 -113.7043 502.3402)" class="st1" width="8" height="1"/>
		
			<rect x="535.6" y="397.9" transform="matrix(0.7071 -0.7071 0.7071 0.7071 -123.6302 498.2585)" class="st1" width="8" height="1"/>
		<polygon class="st1" points="587.5,350.2 575.5,350.2 581.3,356 576,361.2 576.8,362 582,356.7 587.5,362.2 		"/>
		<path class="st1" d="M274.6,143c-0.8-5.7-6-9.6-11.7-8.8c-2.3,0.3-4.4,1.4-6,3.1c-2.9-7-10.9-10.3-17.8-7.4
			c-0.2,0.1-0.4,0.2-0.5,0.2c-4.2-9.5-15.3-13.7-24.8-9.5c-6.3,2.8-10.6,8.8-11.1,15.7c-5.6-5.1-14.2-4.6-19.3,1
			c-1.5,1.6-2.5,3.6-3.1,5.7H274.6z"/>
		<polygon class="st2" points="220.1,292.3 483.7,292.3 483.7,555.9 		"/>
		
			<rect x="167.4" y="416.4" transform="matrix(0.7071 -0.7071 0.7071 0.7071 -255.3513 346.1097)" class="st2" width="245.4" height="129.7"/>
		<polygon class="st3" points="273.7,471.4 273.7,371.8 174.1,371.8 206.6,404.2 151.4,459.5 186,494.1 241.2,438.9 		"/>
		<polygon class="st3" points="593.4,341.6 593.4,292.5 544.2,292.5 560.2,308.5 533,335.8 550.1,352.9 577.3,325.6 		"/>
		<polygon class="st2" points="219.4,337.4 219.4,292.4 174.4,292.4 189.1,307.1 164.1,332 179.8,347.7 204.8,322.7 		"/>
		<polygon class="st1" points="153.4,431 153.4,402 124.4,402 133.9,411.5 117.8,427.5 127.9,437.6 143.9,421.5 		"/>
		<polygon class="st4" points="284.3,666.3 284.3,637.3 255.3,637.3 264.8,646.8 248.7,662.9 258.8,673 274.8,656.9 		"/>
		<polygon class="st3" points="425.3,607.4 425.3,592.9 410.8,592.9 415.5,597.6 407.5,605.7 412.5,610.7 420.6,602.7 		"/>
		<polygon class="st5" points="444,454.9 444,400 389.1,400 407,417.9 376.6,448.3 395.7,467.4 426.1,437 		"/>
		<polygon class="st2" points="113.6,661.2 113.6,647.7 100,647.7 104.4,652.1 96.9,659.6 101.7,664.3 109.2,656.8 		"/>
		<polygon class="st6" points="295.7,563 295.7,540.7 273.3,540.7 280.6,547.9 268.2,560.3 276,568.1 288.4,555.7 		"/>
		<polygon class="st7" points="369.4,330 369.4,315.5 354.9,315.5 359.6,320.2 351.5,328.3 356.6,333.3 364.6,325.3 		"/>
		<polygon class="st3" points="352.9,589.1 352.9,562.5 326.4,562.5 335,571.2 320.3,585.9 329.6,595.1 344.3,580.4 		"/>
		<polygon class="st3" points="157.7,522.3 157.7,502.2 137.6,502.2 144.1,508.7 133,519.9 139.9,526.9 151.1,515.7 		"/>
		<polygon class="st8" points="219.5,529.8 219.5,514.4 204.2,514.4 209.2,519.4 200.6,527.9 206,533.3 214.5,524.8 		"/>
		<polygon class="st9" points="511.6,523.1 511.6,508.6 497.1,508.6 501.9,513.3 493.8,521.4 498.9,526.4 506.9,518.4 		"/>
		<polygon class="st3" points="444.2,516.4 444.2,496.3 424.1,496.3 430.6,502.9 419.5,514 426.5,521 437.6,509.9 		"/>
		<polygon class="st3" points="315.6,279.1 315.6,264.6 301.1,264.6 305.8,269.3 297.8,277.4 302.8,282.4 310.9,274.4 		"/>
		
			<rect x="479.5" y="338.1" transform="matrix(0.7109 -0.7033 0.7033 0.7109 -99.8088 436.4211)" class="st10" width="2.9" height="2.9"/>
		
			<rect x="484.7" y="333" transform="matrix(0.7112 -0.703 0.703 0.7112 -94.6984 438.4036)" class="st11" width="2.9" height="2.9"/>
		
			<rect x="489.9" y="327.8" transform="matrix(0.7109 -0.7033 0.7033 0.7109 -89.511 440.7852)" class="st12" width="2.9" height="2.9"/>
		
			<rect x="495.2" y="322.6" transform="matrix(0.7109 -0.7033 0.7033 0.7109 -84.3571 442.9623)" class="st13" width="2.9" height="2.9"/>
		
			<rect x="500.4" y="317.5" transform="matrix(0.7107 -0.7035 0.7035 0.7107 -79.1724 445.3583)" class="st14" width="2.9" height="2.9"/>
		
			<rect x="505.6" y="312.2" transform="matrix(0.711 -0.7031 0.7031 0.711 -74.0545 447.2162)" class="st15" width="2.9" height="2.9"/>
		
			<rect x="510.9" y="307.1" transform="matrix(0.7115 -0.7026 0.7026 0.7115 -69.0508 449.0358)" class="st16" width="2.9" height="2.9"/>
		
			<rect x="516.1" y="301.9" transform="matrix(0.711 -0.7031 0.7031 0.711 -63.7445 451.5821)" class="st17" width="2.9" height="2.9"/>
		
			<rect x="521.3" y="296.8" transform="matrix(0.7107 -0.7035 0.7035 0.7107 -58.5496 454.0935)" class="st18" width="2.9" height="2.9"/>
		
			<rect x="526.6" y="291.6" transform="matrix(0.7114 -0.7028 0.7028 0.7114 -53.5677 455.6699)" class="st19" width="2.9" height="2.9"/>
		
			<rect x="531.8" y="286.4" transform="matrix(0.711 -0.7031 0.7031 0.711 -48.3126 458.1387)" class="st20" width="2.9" height="2.9"/>
		
			<rect x="537" y="281.3" transform="matrix(0.711 -0.7031 0.7031 0.711 -43.189 460.3511)" class="st21" width="2.9" height="2.9"/>
		
			<rect x="542.3" y="276" transform="matrix(0.7107 -0.7035 0.7035 0.7107 -37.8974 462.8001)" class="st22" width="2.9" height="2.9"/>
		
			<rect x="547.5" y="270.8" transform="matrix(0.711 -0.7031 0.7031 0.711 -32.8566 464.6855)" class="st23" width="2.9" height="2.9"/>
		
			<rect x="552.7" y="265.7" transform="matrix(0.7106 -0.7036 0.7036 0.7106 -27.5696 467.2781)" class="st24" width="2.9" height="2.9"/>
		<rect x="558" y="260.6" transform="matrix(0.711 -0.7031 0.7031 0.711 -22.59 469.08)" class="st25" width="2.9" height="2.9"/>
		
			<rect x="563.2" y="255.4" transform="matrix(0.7109 -0.7033 0.7033 0.7109 -17.3837 471.3609)" class="st26" width="2.9" height="2.9"/>
		
			<rect x="568.4" y="250.1" transform="matrix(0.711 -0.7031 0.7031 0.711 -12.2436 473.4145)" class="st27" width="2.9" height="2.9"/>
		
			<rect x="573.7" y="245" transform="matrix(0.7106 -0.7036 0.7036 0.7106 -6.9443 476.0126)" class="st28" width="2.9" height="2.9"/>
		
			<rect x="578.9" y="239.8" transform="matrix(0.7112 -0.703 0.703 0.7112 -2.0121 477.7057)" class="st29" width="2.9" height="2.9"/>
		
			<rect x="584.1" y="234.7" transform="matrix(0.7109 -0.7033 0.7033 0.7109 3.2218 480.0991)" class="st29" width="2.9" height="2.9"/>
		
			<rect x="589.4" y="229.5" transform="matrix(0.711 -0.7031 0.7031 0.711 8.3148 482.1905)" class="st29" width="2.9" height="2.9"/>
		
			<rect x="467.5" y="326.1" transform="matrix(0.7115 -0.7026 0.7026 0.7115 -94.9321 423.998)" class="st10" width="2.9" height="2.9"/>
		
			<rect x="472.7" y="321" transform="matrix(0.7109 -0.7033 0.7033 0.7109 -89.6897 426.6676)" class="st11" width="2.9" height="2.9"/>
		
			<rect x="477.9" y="315.8" transform="matrix(0.7113 -0.7029 0.7029 0.7113 -84.5772 428.5411)" class="st12" width="2.9" height="2.9"/>
		
			<rect x="483.1" y="310.6" transform="matrix(0.711 -0.7031 0.7031 0.711 -79.3791 430.9177)" class="st13" width="2.9" height="2.9"/>
		
			<rect x="488.4" y="305.4" transform="matrix(0.7109 -0.7033 0.7033 0.7109 -74.231 433.2117)" class="st14" width="2.9" height="2.9"/>
		
			<rect x="493.6" y="300.2" transform="matrix(0.7113 -0.7029 0.7029 0.7113 -69.1186 435.0875)" class="st15" width="2.9" height="2.9"/>
		
			<rect x="498.8" y="295.1" transform="matrix(0.711 -0.7031 0.7031 0.711 -63.9665 437.493)" class="st16" width="2.9" height="2.9"/>
		
			<rect x="504.1" y="289.9" transform="matrix(0.7106 -0.7036 0.7036 0.7106 -58.7153 440.0781)" class="st17" width="2.9" height="2.9"/>
		
			<rect x="509.3" y="284.7" transform="matrix(0.7102 -0.704 0.704 0.7102 -53.4483 442.5324)" class="st18" width="2.9" height="2.9"/>
		
			<rect x="514.5" y="279.5" transform="matrix(0.7109 -0.7033 0.7033 0.7109 -48.4605 444.1282)" class="st19" width="2.9" height="2.9"/>
		
			<rect x="519.8" y="274.4" transform="matrix(0.7115 -0.7026 0.7026 0.7115 -43.4756 445.828)" class="st20" width="2.9" height="2.9"/>
		<rect x="525" y="269.2" transform="matrix(0.711 -0.7031 0.7031 0.711 -38.1718 448.3828)" class="st21" width="3" height="2.9"/>
		
			<rect x="530.2" y="264" transform="matrix(0.7108 -0.7034 0.7034 0.7108 -32.957 450.7581)" class="st22" width="2.9" height="2.9"/>
		
			<rect x="535.4" y="258.8" transform="matrix(0.7109 -0.7033 0.7033 0.7109 -27.8267 452.8349)" class="st23" width="2.9" height="2.9"/>
		
			<rect x="540.7" y="253.7" transform="matrix(0.7112 -0.703 0.703 0.7112 -22.78 454.8581)" class="st24" width="2.9" height="2.9"/>
		
			<rect x="545.9" y="248.5" transform="matrix(0.711 -0.7031 0.7031 0.711 -17.5623 457.1102)" class="st25" width="2.9" height="2.9"/>
		
			<rect x="551.1" y="243.3" transform="matrix(0.711 -0.7031 0.7031 0.711 -12.4158 459.2996)" class="st26" width="3" height="2.9"/>
		
			<rect x="556.4" y="238.1" transform="matrix(0.7112 -0.703 0.703 0.7112 -7.3227 461.3918)" class="st27" width="2.9" height="2.9"/>
		
			<rect x="561.6" y="233" transform="matrix(0.7112 -0.703 0.703 0.7112 -2.1736 463.5836)" class="st28" width="2.9" height="2.9"/>
		
			<rect x="566.8" y="227.8" transform="matrix(0.7108 -0.7034 0.7034 0.7108 3.1236 466.0383)" class="st29" width="2.9" height="2.9"/>
		
			<rect x="572.1" y="222.6" transform="matrix(0.711 -0.7031 0.7031 0.711 8.1796 468.0328)" class="st29" width="2.9" height="2.9"/>
		
			<rect x="577.3" y="217.4" transform="matrix(0.7109 -0.7033 0.7033 0.7109 13.3661 470.327)" class="st29" width="2.9" height="2.9"/>
		
			<rect x="478.8" y="327" transform="matrix(0.7113 -0.7029 0.7029 0.7113 -92.231 432.4141)" class="st10" width="2.9" height="2.9"/>
		
			<rect x="484" y="321.9" transform="matrix(0.7109 -0.7033 0.7033 0.7109 -87.0313 434.9106)" class="st11" width="2.9" height="2.9"/>
		
			<rect x="489.3" y="316.7" transform="matrix(0.7112 -0.703 0.703 0.7112 -81.9394 436.8975)" class="st12" width="2.9" height="2.9"/>
		
			<rect x="494.5" y="311.5" transform="matrix(0.7107 -0.7035 0.7035 0.7107 -76.6554 439.4572)" class="st13" width="2.9" height="2.9"/>
		
			<rect x="499.7" y="306.4" transform="matrix(0.7108 -0.7034 0.7034 0.7108 -71.5795 441.5751)" class="st14" width="2.9" height="2.9"/>
		
			<rect x="504.9" y="301.1" transform="matrix(0.7113 -0.7029 0.7029 0.7113 -66.473 443.313)" class="st15" width="2.9" height="2.9"/>
		<rect x="510.2" y="296" transform="matrix(0.7112 -0.703 0.703 0.7112 -61.3301 445.63)" class="st16" width="2.9" height="2.9"/>
		
			<rect x="515.4" y="290.8" transform="matrix(0.7108 -0.7034 0.7034 0.7108 -56.1152 448.1236)" class="st17" width="2.9" height="2.9"/>
		
			<rect x="520.7" y="285.6" transform="matrix(0.7107 -0.7035 0.7035 0.7107 -50.9162 450.3921)" class="st18" width="2.9" height="2.9"/>
		
			<rect x="525.9" y="280.5" transform="matrix(0.7115 -0.7026 0.7026 0.7115 -45.9846 451.8885)" class="st19" width="2.9" height="2.9"/>
		
			<rect x="531.1" y="275.3" transform="matrix(0.711 -0.7031 0.7031 0.711 -40.7152 454.4746)" class="st20" width="2.9" height="2.9"/>
		
			<rect x="536.4" y="270.1" transform="matrix(0.7109 -0.7033 0.7033 0.7109 -35.5124 456.7411)" class="st21" width="2.9" height="2.9"/>
		
			<rect x="541.6" y="265" transform="matrix(0.711 -0.7031 0.7031 0.711 -30.4193 458.8463)" class="st22" width="2.9" height="2.9"/>
		
			<rect x="546.8" y="259.7" transform="matrix(0.711 -0.7031 0.7031 0.711 -25.2158 460.9871)" class="st23" width="2.9" height="2.9"/>
		
			<rect x="552" y="254.5" transform="matrix(0.7106 -0.7036 0.7036 0.7106 -19.9333 463.5818)" class="st24" width="2.9" height="2.9"/>
		
			<rect x="557.3" y="249.4" transform="matrix(0.7107 -0.7035 0.7035 0.7107 -14.8303 465.6772)" class="st25" width="2.9" height="2.9"/>
		
			<rect x="562.5" y="244.2" transform="matrix(0.7109 -0.7033 0.7033 0.7109 -9.7531 467.6704)" class="st26" width="2.9" height="2.9"/>
		
			<rect x="567.7" y="239" transform="matrix(0.7112 -0.703 0.703 0.7112 -4.6753 469.6374)" class="st27" width="2.9" height="2.9"/>
		<rect x="573" y="233.9" transform="matrix(0.711 -0.7031 0.7031 0.711 0.5149 471.9225)" class="st28" width="2.9" height="2.9"/>
		
			<rect x="578.2" y="228.7" transform="matrix(0.711 -0.7031 0.7031 0.711 5.6455 474.1261)" class="st29" width="2.9" height="2.9"/>
		
			<rect x="583.4" y="223.5" transform="matrix(0.7107 -0.7035 0.7035 0.7107 10.9412 476.5905)" class="st29" width="2.9" height="2.9"/>
		
			<rect x="588.7" y="218.4" transform="matrix(0.711 -0.7031 0.7031 0.711 15.9485 478.495)" class="st29" width="2.9" height="2.9"/>
		
			<rect x="155.9" y="619.4" transform="matrix(0.7071 -0.7071 0.7071 0.7071 -391.5073 294.5995)" class="st3" width="8" height="1"/>
		
			<rect x="136.1" y="639.2" transform="matrix(0.7071 -0.7071 0.7071 0.7071 -411.2712 286.408)" class="st3" width="8" height="1"/>
		<rect x="146" y="629.3" transform="matrix(0.7071 -0.7071 0.7071 0.7071 -401.3707 290.5085)" class="st3" width="8" height="1"/>
		
			<rect x="165.8" y="609.5" transform="matrix(0.7071 -0.7071 0.7071 0.7071 -381.6039 298.7071)" class="st3" width="8" height="1"/>
		<rect x="175.7" y="599.5" transform="matrix(0.7071 -0.7071 0.7071 0.7071 -371.6692 302.81)" class="st3" width="8" height="1"/>
		
			<rect x="185.6" y="589.6" transform="matrix(0.7071 -0.7071 0.7071 0.7071 -361.7346 306.913)" class="st3" width="8" height="1"/>
		<polygon class="st3" points="186.4,581.2 198.4,593.2 198.4,581.2 		"/>
		
			<rect x="305.9" y="412.8" transform="matrix(0.7071 -0.7071 0.7071 0.7071 -201.4551 340.1927)" class="st30" width="8" height="1"/>
		
			<rect x="315.8" y="402.8" transform="matrix(0.7071 -0.7071 0.7071 0.7071 -191.5234 344.2885)" class="st30" width="8" height="1"/>
		
			<rect x="296" y="422.6" transform="matrix(0.7071 -0.7071 0.7071 0.7071 -211.3173 336.0846)" class="st30" width="8" height="1"/>
		
			<rect x="286.1" y="432.5" transform="matrix(0.7071 -0.7071 0.7071 0.7071 -221.2249 331.987)" class="st30" width="8" height="1"/>
		
			<rect x="325.7" y="392.9" transform="matrix(0.7071 -0.7071 0.7071 0.7071 -181.6229 348.389)" class="st30" width="8" height="1"/>
		
			<rect x="355.4" y="363.2" transform="matrix(0.7071 -0.7071 0.7071 0.7071 -151.9001 360.6818)" class="st30" width="8" height="1"/>
		
			<rect x="335.6" y="383" transform="matrix(0.7071 -0.7071 0.7071 0.7071 -171.7224 352.4895)" class="st30" width="8" height="1"/>
		
			<rect x="365.3" y="353.3" transform="matrix(0.7071 -0.7071 0.7071 0.7071 -142.0238 364.784)" class="st30" width="8" height="1"/>
		
			<rect x="345.5" y="373.1" transform="matrix(0.7071 -0.7071 0.7071 0.7071 -161.8219 356.59)" class="st30" width="8" height="1"/>
		<polygon class="st30" points="387.5,335.4 375.5,335.4 381.3,341.2 376,346.4 376.8,347.1 382,341.9 387.5,347.4 		"/>
		<g class="st31">
			
				<rect x="299.7" y="684.5" transform="matrix(0.7113 -0.7029 0.7029 0.7113 -395.3709 410.0928)" class="st32" width="3.6" height="3.6"/>
			
				<rect x="306.2" y="678.1" transform="matrix(0.7114 -0.7028 0.7028 0.7114 -388.926 412.6778)" class="st33" width="3.6" height="3.6"/>
			
				<rect x="312.7" y="671.6" transform="matrix(0.7112 -0.703 0.703 0.7112 -382.6163 415.6192)" class="st34" width="3.6" height="3.6"/>
			
				<rect x="319.2" y="665.2" transform="matrix(0.7108 -0.7034 0.7034 0.7108 -376.3542 418.6786)" class="st35" width="3.6" height="3.6"/>
			
				<rect x="325.6" y="658.8" transform="matrix(0.7106 -0.7036 0.7036 0.7106 -370.0692 421.6303)" class="st36" width="3.6" height="3.6"/>
			
				<rect x="332.1" y="652.4" transform="matrix(0.7108 -0.7034 0.7034 0.7108 -363.6071 424.0876)" class="st37" width="3.6" height="3.6"/>
			
				<rect x="338.5" y="646.1" transform="matrix(0.7113 -0.7029 0.7029 0.7113 -357.1458 426.2996)" class="st38" width="3.6" height="3.6"/>
			
				<rect x="345" y="639.6" transform="matrix(0.711 -0.7031 0.7031 0.711 -350.8008 429.2442)" class="st39" width="3.6" height="3.6"/>
			
				<rect x="351.5" y="633.3" transform="matrix(0.7107 -0.7035 0.7035 0.7107 -344.5627 432.323)" class="st40" width="3.6" height="3.6"/>
			
				<rect x="358" y="626.9" transform="matrix(0.7113 -0.7029 0.7029 0.7113 -338.0193 434.4112)" class="st41" width="3.6" height="3.6"/>
			
				<rect x="364.4" y="620.5" transform="matrix(0.7113 -0.7029 0.7029 0.7113 -331.6729 437.1083)" class="st42" width="3.6" height="3.6"/>
			
				<rect x="371" y="614" transform="matrix(0.7107 -0.7035 0.7035 0.7107 -325.3793 440.4206)" class="st43" width="3.6" height="3.6"/>
			
				<rect x="377.4" y="607.7" transform="matrix(0.7112 -0.703 0.703 0.7112 -318.963 442.6468)" class="st44" width="3.6" height="3.6"/>
			
				<rect x="383.9" y="601.3" transform="matrix(0.7113 -0.7029 0.7029 0.7113 -312.5603 445.2117)" class="st45" width="3.6" height="3.6"/>
			
				<rect x="390.4" y="594.8" transform="matrix(0.7108 -0.7034 0.7034 0.7108 -306.221 448.3902)" class="st46" width="3.6" height="3.6"/>
			
				<rect x="396.8" y="588.5" transform="matrix(0.7113 -0.7029 0.7029 0.7113 -299.8224 450.6295)" class="st47" width="3.6" height="3.6"/>
			
				<rect x="403.3" y="582.1" transform="matrix(0.7109 -0.7033 0.7033 0.7109 -293.5267 453.6977)" class="st48" width="3.6" height="3.6"/>
			
				<rect x="409.8" y="575.6" transform="matrix(0.7106 -0.7036 0.7036 0.7106 -287.1518 456.7402)" class="st49" width="3.6" height="3.6"/>
			
				<rect x="416.2" y="569.3" transform="matrix(0.7112 -0.703 0.703 0.7112 -280.7382 458.8499)" class="st50" width="3.6" height="3.6"/>
			
				<rect x="422.7" y="562.8" transform="matrix(0.7109 -0.7033 0.7033 0.7109 -274.3249 461.7833)" class="st2" width="3.6" height="3.6"/>
			
				<rect x="429.2" y="556.4" transform="matrix(0.7113 -0.7029 0.7029 0.7113 -267.9579 464.1251)" class="st2" width="3.6" height="3.6"/>
			
				<rect x="435.7" y="550" transform="matrix(0.7107 -0.7035 0.7035 0.7107 -261.6139 467.4259)" class="st2" width="3.6" height="3.6"/>
			<polygon class="st2" points="446.8,542.5 445.5,550.4 439,543.8 			"/>
		</g>
		<polygon class="st51" points="525.7,558.8 516.3,549.5 525.7,549.5 		"/>
		<polygon class="st51" points="525.7,503.2 516.3,493.8 525.7,493.8 		"/>
		<polygon class="st51" points="525.7,447.5 516.3,438.1 525.7,438.1 		"/>
		<path class="st3" d="M411.1,289.2l-0.1,2.9l3.4,0.1l0.1-1.4l2.6,1.5h3.2c0,0,0.5-0.9-0.2-1c-0.2,0-2.4-0.7-2.4-0.7l-1.6-1.3
			L411.1,289.2z"/>
		<path class="st3" d="M364,175.4l-1.3-5.9c-0.4-1.8,0.7-3.5,2.5-3.9l3.2-0.7c1.8-0.4,3.5,0.7,3.9,2.5c0,0,0,0,0,0l1.3,5.9
			c0.4,1.8-0.7,3.5-2.5,3.9l-3.2,0.7C366.1,178.3,364.4,177.2,364,175.4C364,175.4,364,175.4,364,175.4z M370.8,167.7
			c-0.2-1-1.2-1.6-2.1-1.3l-3.2,0.7c-0.9,0.2-1.5,1.2-1.3,2.1l1.3,5.9c0.2,0.9,1.2,1.5,2.1,1.3c0,0,0,0,0,0l3.2-0.7
			c0.9-0.2,1.5-1.2,1.3-2.1c0,0,0,0,0,0L370.8,167.7z"/>
		<polygon class="st3" points="334.4,158.4 343.1,196.7 357.2,193.8 351.1,174.8 348.5,155.6 		"/>
		<path class="st3" d="M352,154.4c-1.5,0.3-2.4,1.7-2.1,3.2c0,0.1,0,0.1,0,0.2l2.3,16.4l5.2,16.6c0,0,0.9,2.7,3.3,2.2l11.2-2.4
			l-8.8-38.6C363.2,152,354.8,153.7,352,154.4z"/>
		<path class="st30" d="M353.2,177.3l-1.7,0.4c-1.3,0.3-2.6-0.5-2.9-1.8c0,0,0,0,0,0l0,0c-0.3-1.3,0.5-2.7,1.8-3l1.7-0.4
			L353.2,177.3z"/>
		<polygon class="st2" points="525.4,235.3 525.4,207.1 497.2,207.1 506.4,216.3 490.7,231.9 500.5,241.8 516.2,226.1 		"/>
		<path class="st1" d="M487.5,86.1c0.1-0.5,0.1-1,0-1.5c-0.2-0.6-3.4-5.8-3.4-5.8c0.7-0.3,1.5,0,1.8,0.7c0.4,0.6,1,1.1,1.6,1.4
			l0.9-5.8l0.7,0.1l0.1-0.1c0.7,0,1.3,0.3,1.8,0.8c0.2-0.7-0.1-2.1,0.6-1.8c0.1,0.4,0.4,3,0.4,3.2c-0.1,0.5-0.3,1-0.5,1.5
			c0,0-0.1,1.2-0.2,2.6c-0.1,0.9-0.3,1.7-0.5,2.6v1.7L487.5,86.1z"/>
		<path class="st52" d="M382.6,189.1c0,0,9.1-8.5,29.7-9.5c19.4-0.9,27.3-45.9,27.3-45.9s-36.6,26.4-47.9,39.9
			C388.7,177.4,382.6,189.1,382.6,189.1z"/>
		<path class="st3" d="M445.7,93.3c0,0,7.4-1.4,17.9,8.9s18.5,14.7,18.5,14.7l5.1-31.7l4.2,0.3c0,0,0.1,26.2-0.3,35.5
			c-0.3,7.7-7.7,10.2-11.4,7.9c-2.7-1.7-10.8-6.4-14.7-8.6c-4-20.7-14.5-15.5-14.5-15.5L445.7,93.3z"/>
		<path class="st3" d="M446.9,176.7l-29.6,112.2c-2.7,0.5-5.4,0.8-8.2,0.9c1.2-20.4-1.1-39.9,4.7-52.5c0.6-20.8-3.4-63.7-3.4-63.7
			L446.9,176.7z"/>
		<path class="st3" d="M422.9,288.6l-0.2,3.5l3.4,0.1l0.1-1.4l3.7,1.5h3.5c0,0,0.5-0.9-0.2-1c-0.2,0-2.9-1-2.9-1l-2-1.6L422.9,288.6
			z"/>
		<path class="st3" d="M444.1,158.7c0,0,18-12.4,19.1-35.9c0.8-18.1-13-31.5-13-31.5L444.1,158.7z"/>
		<path class="st53" d="M446.9,176.7c0,0,5.7-23.6,10.5-46.1c4-18.5-7.6-40.3-7.6-40.3l-10.2,1.8c0,0-18.1,14.4-22.7,32.2
			c-2.8,10.9-6.6,31.9-6.6,31.9l0.2,17.3L446.9,176.7z"/>
		<path class="st54" d="M441.8,176.2c0,0-1.1-12.7,3.4-19.4c4.9-7.3,5.4-22.2,5.4-22.2s-1.9,12.3-5.8,21.2s-4.5,20.2-4.5,20.2
			L441.8,176.2z"/>
		<path class="st54" d="M439.6,92.1l-1,0.7l6.7,8.7c2.3-0.9,4.2-2.5,5.3-4.7C446.6,96.6,442.6,94.9,439.6,92.1z"/>
		<path class="st3" d="M438.6,92.8c0,0,20.9,32.2-5.2,52.5c-50.4,39.2-59.4,61.1-59.4,61.1s-4-31.9,22.6-47.6
			C442.8,131.6,438.6,92.8,438.6,92.8z"/>
		<path class="st3" d="M409.7,154.9c0,0-0.4-10-0.2-21.8c4.6-5.2,7.4-9.5,8.9-12.5c-3.8-3.5-9.5-10.2-6.9-15.9
			c1-1.5,2.4-2.7,4.1-3.4c14.2-5.3,23.1-8.5,23.1-8.5s10.1,17-3.4,37S409.7,154.9,409.7,154.9z"/>
		<path class="st54" d="M447.8,143.6c0,0-4,9.1-7.3,15.1c-1.6,3.1-3.6,6.1-5.8,8.8c0,0-5.2-0.3-7.4,0.1c-1.5,0.4-3,0.9-4.5,1.4
			c0,0,1.7-7.7,2.9-9.9c0.9-1.5,2-2.8,3.4-3.9l6.1-5.3L447.8,143.6z"/>
		<path class="st2" d="M451.2,96.9c0,0,1,0.7,1.7,3.1c0,0.9-0.3,1.8-0.8,2.5c2.7,6.5,3.9,13.6,3.5,20.6
			c-1.2,18.2-20.6,39.4-20.6,39.4l-9.4,1.3l1.5-9.9c0,0,20.3-14.4,23.5-32c2.2-12.2-0.2-19-0.2-19c-0.9-0.6-1.7-1.3-2.4-2.1
			C449.3,99.9,450.5,98.5,451.2,96.9z"/>
		<path class="st55" d="M436.8,97.8c0,0,5.4,7.9,2.2,12.3c2.2,1.6,4.2,2.8,4.2,2.8c-1.1,1.5-2.4,2.9-3.8,4.2
			c1.7,3.5,2.4,13.4-0.2,21c8.8-13.2,6-25.7,4.2-31.5c-1.3-4-2.9-7.8-4.9-11.4L436.8,97.8z"/>
		<path class="st1" d="M439.7,92.1c0.4-2.3,0.4-4.6,0-6.9c-0.1-3,5-4.4,5-4.4c1.1,2.1,2.1,4.4,2.8,6.7c0.6,2,2.1,3.5,4.1,4
			c2.4,0.2,6.3,0.2,6.3,0.2s-6.3,1.3-7.1,4.5C445.4,96.5,439.7,92.1,439.7,92.1z"/>
		<path class="st1" d="M457.7,91.6c-2.1,0.1-5.1,0.1-6.9-0.1c-1.5-0.2-2.7-1.3-3.1-2.8l-1.5-4.3c-0.7-0.3-1.3-0.8-1.8-1.4
			c-0.6-0.8-0.4-1.9,0.3-2.5c0.2-0.1,0.4-0.2,0.7-0.3c2.9-1.2,0.2-8.3,0.2-8.3l4-1.2l3.6,1.8l6.5,9.7c0,0,0.1,0.6-0.7,0.7
			c-0.6,0.1-1.1,0.2-1.7,0.4c0,0,1.3,7,1.3,7.4C458.7,91.3,458.3,91.7,457.7,91.6z"/>
		<path class="st3" d="M455.5,78.7c0,0.6-0.1,0.6-0.7,0.6s-2.2,0.2-2.1-0.1c0.8-0.5,1.6-1,2.4-1.3C455.6,77.6,455.5,78.1,455.5,78.7
			z"/>
		<path class="st3" d="M438.9,74c9.7-6,13.7-6.4,14.8-3.8c0.3,0.8,0.1,1.7-0.4,2.3c-3.3-0.2-6.4-0.1-5.4,2c0.2,0.7,3.6,8.1,1,8.4
			c-0.6-1-2.2-3.3-4.1-2.2c-1.1,0.7,0.1,3.3-5.1,4.5C439.2,80.9,438.2,75.7,438.9,74z"/>
		<path class="st1" d="M376.2,164.7c0,0,0.4,1.9,0.5,2.6c0.1,1.1-2.1,4.5-2.5,7.5c0,0.3-1-0.4-0.8-1.3c0.2-0.8,0.3-1.7,0.3-2.6
			l-1.9,1.4l0.2,0.8c0,0-0.4,0.1-1.2,0.1c-0.4,0.1-0.8-0.2-0.9-0.5c0,0,0-0.1,0-0.1c0-0.2-0.1-0.4-0.2-0.6c-0.3-0.3-0.5-0.7-0.4-1.1
			c0-0.3-0.1-0.5-0.2-0.8c-0.1-0.2-0.1-0.5-0.1-0.8c0.6-0.7,1.3-1.3,2-1.9c1.2-0.9,3.3-2.1,3.3-2.1l1-1.3L376.2,164.7z"/>
		<path class="st3" d="M428.6,287.4c-3,1-6,1.6-9.2,1.7c0-1.2,0.4-4.8,0.4-4.8s14.5-52,12.5-56.4c-3.6-7.8,14.7-51.2,14.7-51.2
			L428.6,287.4z"/>
		<path class="st3" d="M461,76.9h-0.9c-0.3,0-0.6,0.7-0.6,1.6s0.3,1.6,0.6,1.6h0.9c0.3,0,0.6-0.7,0.6-1.6S461.4,76.9,461,76.9z"/>
		<path class="st3" d="M478.4,79.9H461c0,0-0.6-0.2-0.6-1.4s0.6-1.3,0.6-1.3h17.3C478.2,78,478.2,79,478.4,79.9z"/>
		<path class="st3" d="M496.7,80.4h-17.3c0,0-0.6-0.1-0.6-1.9s0.6-1.9,0.6-1.9h17.3C496.4,77.9,496.4,79.2,496.7,80.4z"/>
		<path class="st3" d="M535.2,81.9h-37c0,0-1-0.5-1-3.5s1-3.3,1-3.3h37V81.9z"/>
		<path class="st3" d="M535.4,73.1h-2.6c-1,0-1.8,2.4-1.8,5.4s0.8,5.4,1.8,5.4h2.6c1,0,1.8-2.4,1.8-5.4S536.3,73.1,535.4,73.1z"/>
		<path class="st54" d="M536.5,78.5c0,2.5-0.5,4.6-1.2,4.6s-1.2-2-1.2-4.6s0.5-4.6,1.2-4.6S536.5,76,536.5,78.5z"/>
		<polygon class="st3" points="374.1,165.2 377.1,167.5 419.3,120.1 411.5,104.5 		"/>
		<path class="st1" d="M490.9,76.6c0.1-0.2,0.1-0.3,0.1-0.3l-0.8-0.3l-0.6-0.6l-1.2-0.2c0,0-2.1,2.6-2.4,2.9c0.3,0.3,0.7,0.3,1,0
			l1.5-1.5h0.3l-0.4,1.9h1c0.3,0,0.6-0.2,0.9-0.4C490.5,77.6,490.7,77.1,490.9,76.6L490.9,76.6L490.9,76.6z"/>
		<path class="st56" d="M457.4,91.8c-2.1,0-4.9,0-6-0.1c-1.6-0.2-3-1.4-3.3-3l-1.5-4.1c-0.7-0.1-1.3-0.4-1.6-1c0,0,0-0.2,0.1,0
			c0.4,0.4,1,0.5,1.6,0.5c0.2,0,0.4,0.2,0.4,0.3c0.1,0.3,1.5,4.1,1.5,4.1c0.3,1.4,1.4,2.5,2.9,2.6c1.8,0.2,6.6,0.1,7.2,0.1
			C458.3,91.5,457.8,91.7,457.4,91.8z"/>
		<polygon class="st1" points="169.6,629.8 169.6,569.2 109,569.2 128.8,589 95.2,622.6 116.2,643.6 149.8,610 		"/>
	</g>
</g>
</svg>
