<svg xmlns="http://www.w3.org/2000/svg" xmlns:xlink="http://www.w3.org/1999/xlink" viewBox="0 0 3066 1971"><defs><style>.cls-1{isolation:isolate;}.cls-2,.cls-83{fill:#fff;}.cls-3{fill:url(#linear-gradient);}.cls-4{fill:url(#linear-gradient-2);}.cls-5{fill:url(#linear-gradient-3);}.cls-6{fill:#bddae5;}.cls-7{fill:#adc7d1;}.cls-8{fill:#99bbc6;}.cls-9{fill:#779199;}.cls-10{fill:#698087;}.cls-11{fill:#e1eef2;}.cls-12{fill:#eac092;}.cls-13{fill:#19436e;}.cls-14{fill:#2d1b18;}.cls-15{fill:#263238;}.cls-16{fill:#ffd5a1;}.cls-17{fill:#64b5f6;}.cls-18{fill:#333;}.cls-19{fill:#885d32;}.cls-20{fill:#e87c81;}.cls-21{fill:#ffe0c7;}.cls-22{fill:#492a26;}.cls-23{fill:#90caf9;}.cls-24{fill:#fbc02d;}.cls-25{fill:#1f5387;}.cls-26{fill:#4fa5c2;opacity:0.3;}.cls-27{fill:#e2e6e8;}.cls-27,.cls-30,.cls-35,.cls-41,.cls-45,.cls-58,.cls-65,.cls-66,.cls-67{mix-blend-mode:multiply;}.cls-28,.cls-29,.cls-30{fill:#e7eff2;}.cls-29,.cls-83{mix-blend-mode:screen;}.cls-31{fill:#4e73d8;}.cls-32{fill:#dce2f5;}.cls-33{fill:#f5f5f5;}.cls-34{fill:#4671c7;}.cls-35,.cls-57{fill:#e3e3e3;}.cls-36{fill:#3583e5;}.cls-37{fill:#d5d5d5;}.cls-38{fill:#9b9b9b;}.cls-39{fill:#3674f4;}.cls-40{fill:#424242;}.cls-41{fill:#e1e5e4;}.cls-42{fill:#03a9f4;}.cls-43{fill:#b2b2b2;}.cls-44{fill:#0288d1;}.cls-45{fill:#ebedec;}.cls-46{fill:#ffca28;}.cls-47{fill:#ffc107;}.cls-48{fill:#c4c5c7;}.cls-49{fill:#9a9a9b;}.cls-50{fill:#3d3d3d;}.cls-51{fill:#0277bd;}.cls-52{fill:#bdbdbd;}.cls-53{fill:#9e9e9e;}.cls-54{fill:#888989;}.cls-55{fill:#ffeb3b;}.cls-56{fill:#f9a825;}.cls-59{fill:#eaecef;}.cls-60{fill:#455a64;}.cls-61{fill:#73b3dd;}.cls-62{fill:#a0a0a0;}.cls-63{fill:#3067d9;}.cls-64{fill:#616161;}.cls-65{fill:#9f96ff;}.cls-66{fill:#e6e6e6;}.cls-67,.cls-70{fill:#efece6;}.cls-68{fill:#37474f;}.cls-69{fill:#595758;}.cls-71{fill:#696969;}.cls-72{fill:#575757;}.cls-73{fill:#4a4a4a;}.cls-74{fill:#1f1f1f;}.cls-75{fill:#ffcdd2;}.cls-76{fill:#3b3b3b;}.cls-77{fill:#ababa9;}.cls-78{fill:#5bc6d4;}.cls-79{fill:#4abfd9;}.cls-80{fill:#66c9f4;}.cls-81{fill:#66a0de;}.cls-82{fill:#5b8fc7;}.cls-83{opacity:0.2;}.cls-84{fill:url(#linear-gradient-4);}</style><linearGradient id="linear-gradient" x1="1380.58" y1="1071.77" x2="1380.58" y2="475.29" gradientUnits="userSpaceOnUse"><stop offset="0" stop-color="#f2f2f2"/><stop offset="1" stop-color="#9fd7f2"/></linearGradient><linearGradient id="linear-gradient-2" x1="1380.58" y1="1076.65" x2="1380.58" y2="806.95" gradientUnits="userSpaceOnUse"><stop offset="0" stop-color="#bae2f5"/><stop offset="1" stop-color="#85c6e6"/></linearGradient><linearGradient id="linear-gradient-3" x1="1699.78" y1="686.12" x2="1699.78" y2="553.23" gradientUnits="userSpaceOnUse"><stop offset="0" stop-color="#c6e6f5"/><stop offset="1" stop-color="#f2f2f2"/></linearGradient><linearGradient id="linear-gradient-4" x1="1402.18" y1="607.3" x2="1402.18" y2="491.07" gradientTransform="matrix(-1, 0, 0, 1, 2599.41, 0)" xlink:href="#linear-gradient-3"/></defs><g class="cls-1"><g id="_Layer_" data-name="&lt;Layer&gt;"><rect class="cls-2" width="3066" height="1971"/><rect class="cls-2" x="950.71" y="459.59" width="859.75" height="628.01"/><rect class="cls-3" x="961.65" y="470.54" width="837.85" height="606.1"/><polygon class="cls-4" points="1799.5 832.88 1799.5 1076.65 961.65 1076.65 961.65 896.06 989.9 896.06 989.9 1027.11 1031.71 1027.11 1029.96 1049.18 1074.68 1049.18 1086.96 851.21 1192.54 806.95 1193.62 970.28 1250.2 990.6 1250.2 918.49 1314.26 953.81 1314.26 831.15 1398.29 831.15 1398.29 845.98 1437.12 845.98 1437.12 1007.95 1554.75 1007.95 1554.75 1027.11 1577.41 1027.11 1577.41 968.44 1698.21 968.44 1690 876.2 1711.59 876.2 1711.59 832.88 1799.5 832.88"/><path class="cls-5" d="M1799.5,553.23V686.12L1601.44,686a1.94,1.94,0,0,0,0-.2c-6.79-27.63,12.9-66.13,42.66-73.1,28.3-6.63,56.86,18.09,85.26,11.94,17-3.7,29.74-17.7,39.49-32.11C1776,581.83,1786.65,566.22,1799.5,553.23Z"/><polygon class="cls-6" points="1810.46 1087.6 1858.58 1087.6 1858.58 411.47 1810.46 459.58 1810.46 1087.6"/><polygon class="cls-7" points="950.71 1087.6 902.59 1087.6 902.59 411.47 950.71 459.58 950.71 1087.6"/><polygon class="cls-8" points="902.59 411.47 950.71 459.58 1810.46 459.58 1858.58 411.47 902.59 411.47"/><rect class="cls-9" x="883.13" y="1087.6" width="994.91" height="30.68"/><rect class="cls-10" x="883.13" y="1110.61" width="994.91" height="7.67"/><polygon class="cls-11" points="1899.94 1152.13 905.03 1152.13 883.13 1118.28 1878.04 1118.28 1899.94 1152.13"/><rect class="cls-2" x="1792.05" y="559.75" width="9.65" height="50.68"/><rect class="cls-2" x="1792.05" y="936.75" width="9.65" height="50.68"/><rect class="cls-2" x="959.47" y="559.75" width="9.65" height="50.68"/><rect class="cls-2" x="959.47" y="936.75" width="9.65" height="50.68"/><rect class="cls-11" x="229.74" y="1597.06" width="2606.53" height="50.07"/><path class="cls-12" d="M582.5,1000.85l75-19L665.84,998s-116.45,88.19-131.8,40.13c-20.78-87.82,26.53-180.34,57.09-189.86,33.31-10.37,36.57,18.16,32,37.46C609,944.74,588.61,971,582.5,1000.85Z"/><path class="cls-13" d="M442.89,1364.53s-38,56-106.61,171.74l18.69,20.4s109.4-108.23,136.58-162.91c26.21-52.72-22.36-49.29-22.36-49.29Z"/><path class="cls-14" d="M589.67,682.87c4.65,4,11,16.76,6.62,26.31s-27.57-14.53-27.57-14.53Z"/><path class="cls-15" d="M311.48,1549.82a9.27,9.27,0,0,0,1.11,11.39l6,6.37,1.11,1.28a17.49,17.49,0,0,1,6.79,5.33c3.12,3.82,7.34,8.91,12,14.32,1.66,1.91,3.35,3.86,5.09,5.81,4.45,5,9.09,9.94,13.43,14.19,2,1.92,3.84,3.66,5.63,5.22,18.93,16.46,31.29,13,31.29,13s6.87-5.82,7.21-8.45c.66-5.2-7.9-12.56-12.81-16.76-3.62-3.08-9-10.18-10.8-12.81-10.31-14.88-17.56-34.18-17.56-34.18-6.87-5-10.69-8.07-13.58-10.29-7.67-5.89-6.61-12.53-7.74-12.4a31.39,31.39,0,0,0-16.32,6.25A48,48,0,0,0,311.48,1549.82Z"/><path class="cls-16" d="M602.42,965.08c0-.09,2.25-84.65,11.46-121.09.52-2.06-8.1-4.56-10.13-4.86-4.25-.56-35.43-8.69-36.45-12.35-5.31-19.2-37.86-23.46-46.9-5.48-5.59,11.11-19.32,16.46-23.6,17-16.46,2.22-8.47,140.58-5.25,152.88C494.23,1001.41,602.28,965.45,602.42,965.08Z"/><path class="cls-17" d="M632.24,965.75c-13.83,3.71-38.13,3.39-38.13,3.39S601.93,837.27,619.05,841c30.21,6.5,23.18,33,22.44,60.48C640.69,930.83,638.86,943.27,632.24,965.75Z"/><path class="cls-16" d="M515.72,847.58s63.84,10.89,56.13-9a88,88,0,0,1-5.38-20.33,45.33,45.33,0,0,1-.3-12.13l-52-32.32-5.08-3.15s10.77,13,12.66,43.25Z"/><path class="cls-12" d="M514.13,773.83l1,5.68s17.39,29.68,51.34,38.77a45.33,45.33,0,0,1-.3-12.13Z"/><path class="cls-16" d="M498.14,747.14c1.77,10.11,12.87,22.59,19,31,17.5,24.14,48.37,39,67.38,30.81,12.56-5.42,26.51-28.78,19.69-67.83-.82-4.69-4.89-8.71-6.28-13-1.49-4.62.44-14.78-1.61-18.91-.15-.29-.3-.6-.47-.91-.54-1.1-1.13-2.22-1.75-3.36-4.66-8.78-10.66-18-16.9-23.3-10.47-8.86-22.75-13.13-35-11C514.7,675.43,491.3,708.08,498.14,747.14Z"/><path class="cls-18" d="M585.19,726.54a3.32,3.32,0,1,0,3.26-3.37A3.33,3.33,0,0,0,585.19,726.54Z"/><path class="cls-18" d="M553.9,737.12a3.32,3.32,0,1,0,3.26-3.38A3.3,3.3,0,0,0,553.9,737.12Z"/><path class="cls-14" d="M577.58,712.32l1.26,5.3c2.83-3,13.87-11.18,17.08-13.1-1-3.1-1.26-2.5-1.26-2.5C589.4,701.8,577.58,712.32,577.58,712.32Z"/><path class="cls-14" d="M534.09,734.15c4.57-11.83,26.15-13.41,26.15-13.41l1.93,4.62S544.71,726.6,534.09,734.15Z"/><path class="cls-19" d="M563.9,782.54a43.75,43.75,0,0,0,8.62,5.2c4,1.82,8.86,3.13,13.25,2,4.74-1.28,8.3-5.91,10.77-10.55h0a55.25,55.25,0,0,0,4.3-10.94Z"/><path class="cls-2" d="M569,780.35s0,2.94,7.07,1.45a53.32,53.32,0,0,0,12.73-4.42c4.7-2.32,7.41-3.08,6.5-7.12Z"/><path class="cls-20" d="M572.52,787.74c4,1.82,8.86,3.13,13.25,2,4.74-1.28,8.3-5.91,10.77-10.55h0C594.34,779.23,578.77,784.38,572.52,787.74Z"/><path class="cls-12" d="M590.86,756.57c-1.37,4.66-10.36,3.24-10.36,3.24s9.75-1.86,9.64-8.14A5.26,5.26,0,0,1,590.86,756.57Z"/><path class="cls-21" d="M576.78,721.84s0,.78-.09,2.14,0,3.31.06,5.63a42.24,42.24,0,0,0,1,7.8,20.72,20.72,0,0,0,1.36,4.12,10.36,10.36,0,0,0,2.48,3.51,7.26,7.26,0,0,0,1.73,1.18c.61.27,1.36.53,2.08.78a11.11,11.11,0,0,1,4.13,2.47,4.6,4.6,0,0,1,1.21,2.2,4.21,4.21,0,0,1-.26,2.36,4.79,4.79,0,0,1-1.2,1.81,11.45,11.45,0,0,1-1.45,1.22,16.07,16.07,0,0,1-5.18,2.47,9.36,9.36,0,0,1-1.58.26l-.56,0a9.19,9.19,0,0,0,2-.58,18.21,18.21,0,0,0,4.71-2.89,10.33,10.33,0,0,0,1.26-1.22,3.67,3.67,0,0,0,.84-1.48,2.94,2.94,0,0,0-.85-3.17,10.6,10.6,0,0,0-3.61-2c-.72-.24-1.45-.47-2.26-.82a8.46,8.46,0,0,1-2.12-1.42,11.71,11.71,0,0,1-2.8-4.06,21.2,21.2,0,0,1-1.32-4.47,38.94,38.94,0,0,1-.52-8.08,50,50,0,0,1,.52-5.65C576.6,722.6,576.78,721.84,576.78,721.84Z"/><path class="cls-22" d="M484.91,739.39c1.77,10.11,15.67,36.63,30.32,43,0,0,1.92-4.19,1.92-4.19s2.46-10.3-5.61-15.78c-4.91-3.33-16-19.25-6.77-22.63,5-1.82,11.39,4.3,12.17-1.56,3-22.48,16-20.05,25.07-21.64,11.31-2,23.14-7.77,33-13.4,6.28-3.58,13.35-8.12,18.33-13.39,14.92-15.8-46.13-26-55.31-24.4C503.91,671.33,477.11,694.82,484.91,739.39Z"/><path class="cls-23" d="M447.52,1114.36c18.75-71.79,6.33-176,3-189.1-.06-.2-.1-.41-.17-.59-1-3.54-2-7.43-2.94-11.56-3-13.4-9.86-29.27-9.48-41.35,0,0,6.86-21.17,9.58-22.32,0,0,5-6,9-8,0,0,55.42-13.22,55.8-13.2,0,0,7.7,12.84,25,24.61,12.53,8.55,29.85,6.56,39.13-5.45,5.43-7,5.06-13.63-1.13-16.07,6.2,1.45,45,9.41,50.57,11.46,2.67,15.39,1.7,86.35-5,147.31-1.67,15.32,2.1,97.21,6.26,135.92C571.64,1162.68,489.87,1162.45,447.52,1114.36Z"/><path class="cls-24" d="M676.46,954.91l-2.76-25.06a2.53,2.53,0,0,0-4.56,1.3l-11.9,37.92Z"/><path class="cls-24" d="M661,1013.15s34.71-33.46,44.33-44.29c7.16-8.07,16.29-32,16.29-32,.22-2-3.32-29-9.11-28.78-15,.62-37,42.55-37,42.55S660.92,956.1,658,964.31l-13.41,15.46Z"/><path class="cls-25" d="M627.17,1086.15c-3.56-37.89-7.48-70.66-1.66-100.63A338.92,338.92,0,0,0,631,937.65v0c2.14-43.47-15.16-98.2-23.38-100.26s-16.13-4-19.13-4.63c2,.75,31,62.83,23.54,92.09l-81.46,6.68C517.61,889.74,489,832.71,489,832.71c-10.57,2-15.28,4.63-15.28,4.63.86,6,9.83,28.56,9.83,28.56-2.64,1.13,15,140.53,16.81,172.44.28,4.84-2.89,8.74-7.36,11.81-6.68,4.59-16.24,7.34-21.58,8.61-2.44.57-19.73-.22-19.73-.22-11.66,56-13.72,109.25-13.94,135.6-2.85,49.06,6,114.69,3.9,152.31-3.34,59.07,57.07,51.83,54.85,36.55l44.35-176.92c1.12-.85,2.22-1.71,3.32-2.65,6.67,18.13,13.87,36.83,20.84,54.91l0,.07c17,44,32.33,84.17,33.83,102,0,0-12.64,41.71-14.72,74.8-5.5,87.77-1.76,144.27.46,164.47L611,1601.6c.43-6.11,41.56-227.69,53.43-250.49C663,1336.35,632,1137.59,627.17,1086.15Z"/><path class="cls-13" d="M538.15,1016.19l64.3-3s1.93,28.39,12.34,40.93v47.58l-38.27,1.28H515.29v-41.41S543,1060.25,538.15,1016.19Z"/><path class="cls-15" d="M577.17,1621.06a9.54,9.54,0,0,0,9.23,7.33l9,.13,1.74.09a18.11,18.11,0,0,1,8.81-1.21c5.06.43,11.85.94,19.21,1.36,2.6.13,5.26.28,7.94.39,6.86.26,13.87.39,20.12.22,2.82-.07,5.46-.22,7.9-.43,25.74-2.23,32.06-13.83,32.06-13.83s.6-9.25-1.1-11.39c-3.37-4.21-15-3.14-21.58-2.51-4.87.47-14-.65-17.21-1.19-18.4-3-37.88-11.47-37.88-11.47-8.59,1.53-13.63,2.14-17.34,2.69-9.85,1.46-14-4.08-14.72-3.15a32.4,32.4,0,0,0-7.06,16.55A49.59,49.59,0,0,0,577.17,1621.06Z"/><path class="cls-25" d="M1548.86,1606.18c0-7.78,29.45,6.82,30.89-.88,7.57-39.91,59.79-127.71,37.59-226.24,8.83-22,28.22-79.88,37.47-102.26,7.53-18.23,8.27-36.28,16.51-53.63v0c3.55-7.42,14.18-14.74,17.91-21.88,20.06-47,1.79-47.44,3.69-97.9-10.13,2-20.23,4.11-30.33,6.12-27.17-9.57-62.11,40.64-66.37,52.47-31.63,87.3-31.25,122.11-38.14,205.51C1565.26,1446,1548.19,1534.81,1548.86,1606.18Z"/><path class="cls-16" d="M1618.79,968.28c0-.09,2.55-85-4.61-122-.4-2.1,8.38-4.12,10.43-4.3,4.3-.32,36-6.7,37.25-10.32,6.41-18.94,39.29-21.36,47.33-2.83,5,11.46,18.43,17.61,22.69,18.37,16.39,3.16.51,141.42-3.41,153.57C1725.2,1010.85,1618.91,968.66,1618.79,968.28Z"/><path class="cls-16" d="M1587.57,1008.94l-62.45-47.52-7.53,19.85s74.32,110.33,104.12,69.61c47.56-76.7,32-179.44,6-198.16-28.3-20.4-40.44,2.11-42.18,21.87C1580.23,935.05,1591.22,978.73,1587.57,1008.94Z"/><path class="cls-17" d="M1651,962.93c5.7-51.91-6.64-98.24-23.25-110.21-28.3-20.4-40.44,2.11-42.18,21.87-2.68,30.23-5,65.5-3.39,85.56C1582.19,960.15,1618.79,968.28,1651,962.93Z"/><path class="cls-16" d="M1712.39,855.4s-64.63,7.29-55.76-12.19a88.36,88.36,0,0,0,6.54-20.07,45.59,45.59,0,0,0,1-12.14l54-29.45,5.27-2.87s-11.53,12.46-15.15,42.64Z"/><path class="cls-12" d="M1718.17,781.55l-1.32,5.64s-19.13,28.76-53.68,35.95a45.59,45.59,0,0,0,1-12.14Z"/><path class="cls-14" d="M1658.31,694.18l-16,14.38c-.32,3-2.41-29.08,13.26-26.25,11.69,2.11,13,3.05,13,3.05Z"/><path class="cls-16" d="M1735.72,755.7c-2.35,10-14.18,21.92-20.79,30-18.91,23.21-50.71,36.37-69.29,27.06-12.3-6.16-25-30.38-15.89-69.13,1.09-4.66,5.39-8.46,7-12.71,1.76-4.58.4-14.86,2.69-18.89,5.47-9.61,13.11-20.82,20.73-26.54,11-8.29,23.57-11.88,35.69-9C1723.19,682.86,1744.79,716.93,1735.72,755.7Z"/><path class="cls-22" d="M1749.42,748.68c-2.34,10-17.79,35.84-32.83,41.35,0,0-1.69-4.31-1.69-4.31s-1.88-10.47,6.52-15.5c5.11-3.06,17.11-18.4,8.07-22.3-4.9-2.12-11.66,3.66-12.11-2.26-1.74-22.72-14.91-21-23.9-23.12-6.72-1.57-52.79-33-43.18-56.73,22.55,12.26,26.94-1.95,50.37,3.53C1734.53,677.27,1759.78,704.44,1749.42,748.68Z"/><path class="cls-25" d="M1616.07,1097.93c12.6,12.63,51.86,59.52,52.14,72.08,1.39,58.28-2.61,91.81,30.77,204,45.89,61.73,92.12,131.54,137.94,195.55,6.27-4.75,27.2-6.65,25.76-14.35-7.42-39.91-44.62-144.85-104.27-191.86,0,0,0-92.16,5.39-141.89,2.43-75.87-16.4-60.28-35-142.48,2.29,10.06-17.35,11.19-26,16.72C1674,1096.66,1644.36,1095.92,1616.07,1097.93Z"/><path class="cls-15" d="M1595.05,1620.09a8.94,8.94,0,0,1-8.84,6.65l-13.47-.24-10-.17a17,17,0,0,0-8.23-1.35c-4.76.28-11.14.6-18.06.8-2.44.07-4.94.13-7.46.17-6.44.08-13,0-18.88-.28-2.64-.14-5.12-.34-7.39-.6-24.1-2.73-29.74-13.76-29.74-13.76s-.34-8.69,1.31-10.66c3.26-3.86,14.11-2.58,20.3-1.83,4.56.57,13.12-.26,16.18-.68,17.33-2.38,35.81-9.84,35.81-9.84,8,1.65,12.74,2.34,16.21,3,9.2,1.61,26.63-3.13,27.27-2.24a30.3,30.3,0,0,1,6.22,15.7A46.28,46.28,0,0,1,1595.05,1620.09Z"/><path class="cls-23" d="M1776.11,855.44s-41.86-13.29-41.88-13.2l-16.49-5.52s-46.88,29.2-63.34-3.19l-20.78,5.38c-6.31,1.1-26,5-31.68,6.73-3.55,15.29-14,86.82-5.3,146.55,8,54.79,1.88,116.34-2.54,165.38.79.23,19.93,2.74,51.48,3.6l3.22.08c12.51.29,26.5.31,41.37-.17,16.13-.52,33.12-.68,50.09-.2l15.46-.13s-3.28-20.82-4.59-83C1757,1014.6,1769.27,950,1773.38,937a5.87,5.87,0,0,1,.19-.59c1.23-3.48,2.45-7.33,3.61-11.41,3.79-13.26,3.71-31.19,4-43.33C1781.21,881.62,1778.76,856.74,1776.11,855.44Z"/><path class="cls-15" d="M1882.65,1574.67a7.5,7.5,0,0,1-4.81,7.72l-13.67,5.2-9.36,3.56a17,17,0,0,0-8.15,1.8c-4.31,2-10.12,4.69-16.46,7.45-2.25,1-4.54,2-6.86,2.93-5.95,2.47-12.08,4.86-17.64,6.75-2.5.85-4.88,1.58-7.09,2.2-23.38,6.41-32.72-1.73-32.72-1.73s-3.54-8-2.74-10.39c1.6-4.8,12.14-7.63,18.17-9.24,4.44-1.16,12.08-5.12,14.77-6.64,15.2-8.65,29.59-22.44,29.59-22.44,8.07-1.45,12.7-2.56,16.14-3.29,9.15-1.92,23.56-12.79,24.49-12.21a30.33,30.33,0,0,1,11.6,12.27A45.51,45.51,0,0,1,1882.65,1574.67Z"/><path class="cls-24" d="M1511.13,947.54l2.76-25.06a2.53,2.53,0,0,1,4.56,1.3l11.89,37.92Z"/><path class="cls-24" d="M1525,997.5s-33.1-25.18-42.71-36c-7.16-8.07-16.3-32-16.3-32-.21-2,3.33-29,9.12-28.78,15,.62,37,42.55,37,42.55s14.57,5.43,17.54,13.65l23.3,17.83Z"/><rect class="cls-26" x="704.44" y="649.22" width="785.29" height="557.92"/><path class="cls-27" d="M704.43,649.22v557.93h785.29V649.22Zm778.72,551.36H711V655.79h772.15Z"/><path class="cls-28" d="M678.15,622.94v610.49H1516V622.94Zm811.57,584.21H704.43V649.22h785.29Z"/><path class="cls-29" d="M678.15,622.94v610.49H1516V622.94Zm833.47,606.11H682.53V627.32h829.09Z"/><path class="cls-30" d="M1494.1,644.84h-794v566.69H1494.1Zm-4.38,562.31H704.43V649.22h785.29Z"/><path class="cls-31" d="M2594.06,1524.16H2238V1377.38a15.63,15.63,0,0,1,15.63-15.63h324.83a15.63,15.63,0,0,1,15.63,15.63Z"/><path class="cls-32" d="M2257.08,1373.33H2575a7.69,7.69,0,0,1,7.69,7.69v143.14a0,0,0,0,1,0,0H2249.39a0,0,0,0,1,0,0V1381A7.69,7.69,0,0,1,2257.08,1373.33Z"/><path class="cls-33" d="M2276,1391.66h280.08a7.69,7.69,0,0,1,7.69,7.69v124.81a0,0,0,0,1,0,0H2268.29a0,0,0,0,1,0,0V1399.35A7.69,7.69,0,0,1,2276,1391.66Z"/><rect class="cls-34" x="2268.29" y="1355.37" width="46.3" height="11.21"/><rect class="cls-34" x="2517.11" y="1355.37" width="46.3" height="11.21"/><path class="cls-23" d="M2432.06,1290.34,2415.89,1552a6.76,6.76,0,0,0,6.33,7.16l20.93,1.29a6.75,6.75,0,0,0,7.16-6.32l16.17-261.63a6.75,6.75,0,0,0-6.32-7.15l-20.94-1.3A6.76,6.76,0,0,0,2432.06,1290.34Zm15.64,97.13-4.33,70a4.89,4.89,0,1,1-9.76-.61l4.33-70a4.89,4.89,0,0,1,9.76.6Z"/><path class="cls-15" d="M2437.48,1536.59H2439a0,0,0,0,1,0,0v34.48a0,0,0,0,1,0,0h-1.54a10.38,10.38,0,0,1-10.38-10.38V1547A10.39,10.39,0,0,1,2437.48,1536.59Z" transform="translate(732.24 3886.5) rotate(-86.47)"/><path class="cls-15" d="M2443.36,1273.38h1.54a10.39,10.39,0,0,1,10.39,10.39v13.71a10.39,10.39,0,0,1-10.39,10.39h-1.54a0,0,0,0,1,0,0v-34.48a0,0,0,0,1,0,0Z" transform="translate(1010.21 3655.75) rotate(-86.47)"/><path class="cls-15" d="M2436,1385.68l-4.46,72.16a6.92,6.92,0,0,0,13.81.86l4.46-72.16a6.92,6.92,0,1,0-13.81-.86Zm11.72,1.79-4.32,70a4.89,4.89,0,0,1-9.77-.61l4.33-70a4.89,4.89,0,0,1,9.76.6Z"/><path class="cls-2" d="M2436.38,1499.93a11.81,11.81,0,1,1-12.51,11.06A11.81,11.81,0,0,1,2436.38,1499.93Z"/><rect class="cls-15" x="2425.65" y="1508.94" width="20" height="5.56" transform="translate(776.56 3849.48) rotate(-86.46)"/><path class="cls-2" d="M2447.45,1320.94a11.81,11.81,0,1,1-12.52,11.06A11.81,11.81,0,0,1,2447.45,1320.94Z"/><rect class="cls-15" x="2436.72" y="1329.94" width="20" height="5.56" transform="translate(965.63 3692.59) rotate(-86.46)"/><path class="cls-35" d="M2449.16,1284.64l11,.68a6.75,6.75,0,0,1,6.32,7.15l-16.17,261.63a6.75,6.75,0,0,1-7.16,6.32l-11-.68,6-97.65a4.88,4.88,0,0,0,5.18-4.58l4.33-70a4.89,4.89,0,0,0-4.58-5.18Z"/><path class="cls-36" d="M2336.52,1363.65s-6.94-29.87,48.8-24.77l2.5-9.18s-18.1-4.13-18.8-4-32.87,11.11-32.87,11.11l-3.89,23.18Z"/><path class="cls-37" d="M2394,1363.38l-.1,1.19,0,.39,0,.39-.09,1.2,0,.39,0,.39-.09,1.19,0,.39,0,.39-.1,1.2,0,.38,0,.4,0,.52-30.31,8.28-34.7,2.85,33.78,197,14.3-1.91h0l.21,0v-.07l1.2-.57,2.15-.55-2-1-.32-.22.35-.17,2.15-.55-2-1-.33-.23.36-.16,2.14-.56-2-1-.33-.22.36-.17,2.15-.55-2-1-.32-.23.35-.17,2.15-.54-2-1-.32-.22.35-.17,2.15-.55-2-1-.32-.23.35-.16,2.15-.55-2-1-.33-.22.36-.17,2.14-.55-2-1-.33-.23.36-.16,2.15-.55-2-1-.32-.22.35-.17,2.15-.55-2-1-.32-.23.35-.16,2.15-.55-2-1-.32-.22.35-.16,2.15-.56-2-1-.33-.22.36-.17,2.14-.55-2-1-.33-.22.36-.16,2.14-.56-2-1-.32-.22.35-.17,2.15-.55-2-1-.32-.23.35-.16,2.15-.56-2-1-.32-.22.35-.17,2.15-.55-2-1-.33-.23.36-.16,2.14-.56-2-1-.33-.22.36-.17,2.14-.55-2-1-.32-.23.35-.16,2.15-.55-2-1-.32-.22.35-.17,2.15-.54-2-1-.32-.23.35-.16,2.15-.55-2-1-.33-.22.36-.17,2.14-.55-2-1-.33-.23.36-.16,2.14-.55-2-1-.32-.22.35-.17,2.15-.54-2-1-.32-.23.35-.16,2.15-.55-2-1-.32-.22.35-.17,2.15-.55-2-1-.32-.23.36-.16,2.14-.55-2-1-.33-.22.36-.16,2.14-.56-2-1-.32-.22.35-.17,2.15-.55-2-1-.32-.22.35-.16,2.15-.55-2-1-.32-.22.35-.17,2.15-.55-2-1-.33-.23.35-.16,2.15-.56-2-1-.33-.22.36-.17,2.14-.55-2-1-.32-.23.35-.16,2.15-.55-2-1-.32-.22.35-.17,2.15-.54-2-1-.32-.23.35-.16,2.15-.55-2-1-.32-.22.35-.17,2.15-.54-2-1-.33-.23.36-.16,2.14-.55-2-1-.33-.22.36-.17,2.15-.54-2-1-.32-.23.36-.17,2.14-.54-2-1-.32-.22.36-.17,2.14-.54-2-1-.32-.23.36-.16,2.14-.55-2-1-.33-.22.36-.16,2.14-.55-2-1-.33-.23.36-.16,2.15-.55-2-1-.32-.22.36-.16,2.14-.55-2-1-.32-.22.36-.17,2.14-.55-2-1-.45-.33.5-.23,2.14-.55-2-1-.32-.22.36-.17,2.14-.54-2-1-.32-.22.36-.17,2.14-.55-2-1-.32-.22.36-.17,2.14-.54-2-1-.33-.22.36-.17,2.14-.55-2-1-.33-.22.36-.17,2.15-.54-2-1-.32-.22.35-.17,2.15-.55-2-1-.32-.22.36-.17,2.14-.54-2-1-.32-.22.36-.17,2.14-.55-2-1-.33-.22.36-.16,2.14-.55-2-1-.33-.22.36-.17,2.14-.55-2-1-.32-.21.36-.17,2.14-.55-2-1-.32-.22.36-.17,2.14-.55-2-1-.32-.22.36-.17,2.14-.55-2-1-.33-.22.36-.17,2.14-.55-2-1-.33-.22.36-.17,2.14-.55-2-1-.32-.22.35-.17,2.15-.55-2-1-.32-.22.36-.17,2.14-.55-2-1-.32-.22.36-.17,2.14-.54-2-1-.33-.22.36-.17,2.14-.55-2-1-.33-.22.36-.17,2.14-.54-2-1-.32-.23.35-.16,2.15-.55-2-1-.32-.22.36-.17,2.14-.54-2-1-.32-.23.36-.16,2.14-.55-2-1-.31-.23.35-.17,2.15-.54-2-1-.32-.23.35-.16,2.15-.55-2-1-.32-.22.35-.16,2.15-.55-2-1-.33-.22.36-.17,2.14-.55-2-1-.33-.22.36-.16,2.15-.55-2-1-.32-.22.35-.17,2.15-.55-2-1-.32-.22.35-.17,1.88-.43.27-.12-.4-.28-1.62-.76-.32-.22.35-.17.5-.23,1.65-.32-2-1-.06,0-.27-.19.19-.09.17-.07,2.14-.55-2-1-.33-.22.36-.17,2.15-.54-2-1-.32-.22.35-.17,2.15-.55-2-1-.32-.22.35-.17,2.15-.54-2-1-.32-.23.35-.16,2.15-.55-2-1-.33-.22.36-.17,2.14-.54-2-1-.33-.23.36-.16,2.14-.55-2-1-.32-.22.35-.17,2.15-.54-2-1-.32-.22.35-.17,2.15-.55-2-1-.32-.22.35-.16,2.15-.55-2-1-.33-.23.36-.16,2.14-.55-2-1-.33-.21.36-.17,2.14-.55-2-1-.32-.22.35-.17,2.15-.55-2-1-.32-.22.35-.17,2.15-.55-2-1-.32-.22.35-.17,2.15-.55-2-1-.35-.24.38-.18,2.14-.55-2-1-.33-.22.36-.17,2.14-.55-2-1-.32-.22.35-.17,2.15-.55-2-1-.32-.22.36-.17,2.14-.55-2-1-.32-.22.36-.17,2.14-.55-2-1-.33-.23.36-.17,2.14-.55-2-1-.33-.22.36-.17,1.43-.68-1.3-.9-.32-.23.35-.17,1.44-.68-1.31-.9-.32-.22.36-.17,1.43-.68-1.31-.9-.32-.23.36-.17,1.31-.61.12-.06-.15-.11-1.15-.8-.33-.22.36-.17.85-.4.58-.28-.72-.5-.58-.4-.33-.23.36-.17.37-.17,1.07-.5-1.31-.91h0l-.3-.22.24-.12c-.29-1.59-.59-3.16-.88-4.71Zm-25.49,211.41a1.85,1.85,0,1,1-2.05-1.63A1.84,1.84,0,0,1,2368.51,1574.79Z"/><path class="cls-38" d="M2365.58,1391.45l1.59,13.65a1.53,1.53,0,0,1-1.34,1.69h0a1.52,1.52,0,0,1-1.69-1.34l-1.58-13.65a1.53,1.53,0,0,1,1.34-1.69h0A1.53,1.53,0,0,1,2365.58,1391.45Z"/><path class="cls-38" d="M2356.22,1390.94l1.58,13.65a1.53,1.53,0,0,1-1.33,1.69h0a1.53,1.53,0,0,1-1.69-1.34l-1.59-13.65a1.53,1.53,0,0,1,1.34-1.69h0A1.52,1.52,0,0,1,2356.22,1390.94Z"/><path class="cls-38" d="M2348.31,1390.25l1.59,13.65a1.53,1.53,0,0,1-1.34,1.69h0a1.52,1.52,0,0,1-1.69-1.34l-1.59-13.65a1.53,1.53,0,0,1,1.34-1.68h0A1.51,1.51,0,0,1,2348.31,1390.25Z"/><path class="cls-38" d="M2339.9,1389.63l1.59,13.65a1.54,1.54,0,0,1-1.34,1.69h0a1.53,1.53,0,0,1-1.69-1.34l-1.58-13.65a1.52,1.52,0,0,1,1.33-1.69h0A1.51,1.51,0,0,1,2339.9,1389.63Z"/><path class="cls-38" d="M2370.8,1388.71l1.59,13.65a1.51,1.51,0,0,0,1.68,1.34h0a1.52,1.52,0,0,0,1.34-1.69l-1.58-13.65a1.53,1.53,0,0,0-1.69-1.34h0A1.53,1.53,0,0,0,2370.8,1388.71Z"/><path class="cls-38" d="M2378.34,1386.24l1.59,13.65a1.53,1.53,0,0,0,1.69,1.34h0a1.53,1.53,0,0,0,1.33-1.69l-1.58-13.65a1.52,1.52,0,0,0-1.69-1.34h0A1.53,1.53,0,0,0,2378.34,1386.24Z"/><path class="cls-38" d="M2384.56,1381.78l1.59,13.65a1.52,1.52,0,0,0,1.68,1.34h0a1.53,1.53,0,0,0,1.34-1.69l-1.58-13.65a1.52,1.52,0,0,0-1.69-1.34h0A1.53,1.53,0,0,0,2384.56,1381.78Z"/><path class="cls-39" d="M2322.81,1333.73c-8.89,11.22,7.31,63,7.31,63l40.57,3.83,27.72-22.42s3.06-45.2-6.08-52.44C2378.62,1314.8,2333.68,1320,2322.81,1333.73Zm62.24,2.82,2.62,22.6-25,18.29-21.08-1.06C2315.75,1323.91,2385.05,1336.55,2385.05,1336.55Z"/><path class="cls-15" d="M2335.52,1388.07a2.65,2.65,0,1,1-2.33,2.94A2.65,2.65,0,0,1,2335.52,1388.07Z"/><path class="cls-15" d="M2365.71,1392.57a2.65,2.65,0,1,1-2.32,2.94A2.65,2.65,0,0,1,2365.71,1392.57Z"/><path class="cls-15" d="M2389.44,1374.34a2.65,2.65,0,1,1-2.33,2.94A2.66,2.66,0,0,1,2389.44,1374.34Z"/><rect class="cls-40" x="2280.12" y="1404.73" width="19.79" height="138.55" transform="translate(-277.83 566.8) rotate(-13.31)"/><rect class="cls-41" x="2294.14" y="1403.09" width="5.58" height="138.55" transform="translate(-277.28 568.36) rotate(-13.31)"/><rect class="cls-42" x="2284.23" y="1465.35" width="23.22" height="66.55" transform="translate(-283.35 568.82) rotate(-13.31)"/><rect class="cls-43" x="2239.1" y="1387.12" width="21.39" height="12.56" transform="translate(4759.94 2231.42) rotate(166.69)"/><rect class="cls-37" x="2232.36" y="1382.81" width="20.6" height="24.56" rx="8.97" transform="translate(-260.89 553.64) rotate(-13.31)"/><path class="cls-37" d="M2286.44,1372.11l-29.88,7.07a3.4,3.4,0,0,0-2.52,4.09l4.42,18.67.46,1.92,3.28,13.88,26.2-6.2-3.28-13.88,7-1.65c19-4.5,38.13,12.15,38.13,12.15C2319,1381.5,2286.44,1372.11,2286.44,1372.11Z"/><path class="cls-44" d="M2296.37,1469.88l-13.88,3.29a1.07,1.07,0,0,1-1.27-.79h0a1.06,1.06,0,0,1,.79-1.27l13.87-3.28a1.06,1.06,0,0,1,1.28.78h0A1.06,1.06,0,0,1,2296.37,1469.88Z"/><path class="cls-44" d="M2297.58,1475l-13.87,3.28a1.07,1.07,0,0,1-1.28-.78h0a1.06,1.06,0,0,1,.79-1.27l13.87-3.29a1.07,1.07,0,0,1,1.28.79h0A1.06,1.06,0,0,1,2297.58,1475Z"/><path class="cls-44" d="M2298.79,1480.11l-13.87,3.29a1.07,1.07,0,0,1-1.28-.79h0a1.07,1.07,0,0,1,.79-1.27l13.88-3.28a1.06,1.06,0,0,1,1.27.78h0A1.06,1.06,0,0,1,2298.79,1480.11Z"/><path class="cls-44" d="M2300,1485.23l-13.87,3.28a1.06,1.06,0,0,1-1.28-.78h0a1.06,1.06,0,0,1,.79-1.27l13.88-3.29a1.07,1.07,0,0,1,1.27.79h0A1.06,1.06,0,0,1,2300,1485.23Z"/><path class="cls-44" d="M2301.21,1490.35l-13.87,3.28a1.06,1.06,0,0,1-1.27-.79h0a1.05,1.05,0,0,1,.78-1.27l13.88-3.28a1.07,1.07,0,0,1,1.27.79h0A1.07,1.07,0,0,1,2301.21,1490.35Z"/><path class="cls-44" d="M2302.42,1495.46l-13.87,3.29a1.06,1.06,0,0,1-1.27-.79h0a1,1,0,0,1,.78-1.27l13.88-3.28a1.05,1.05,0,0,1,1.27.78h0A1.06,1.06,0,0,1,2302.42,1495.46Z"/><path class="cls-44" d="M2303.63,1500.58l-13.87,3.28a1.05,1.05,0,0,1-1.27-.78h0a1,1,0,0,1,.78-1.27l13.88-3.29a1.07,1.07,0,0,1,1.27.79h0A1.06,1.06,0,0,1,2303.63,1500.58Z"/><path class="cls-44" d="M2304.84,1505.69,2291,1509a1.06,1.06,0,0,1-1.27-.79h0a1,1,0,0,1,.78-1.27l13.88-3.28a1.06,1.06,0,0,1,1.27.78h0A1.06,1.06,0,0,1,2304.84,1505.69Z"/><path class="cls-44" d="M2306.05,1510.81l-13.87,3.28a1,1,0,0,1-1.27-.78h0a1,1,0,0,1,.78-1.27l13.88-3.29a1.06,1.06,0,0,1,1.27.79h0A1.06,1.06,0,0,1,2306.05,1510.81Z"/><path class="cls-44" d="M2307.26,1515.93l-13.87,3.28a1.06,1.06,0,0,1-1.27-.79h0a1.05,1.05,0,0,1,.78-1.27l13.88-3.28a1.06,1.06,0,0,1,1.27.79h0A1.07,1.07,0,0,1,2307.26,1515.93Z"/><path class="cls-44" d="M2308.47,1521l-13.87,3.29a1.06,1.06,0,0,1-1.27-.79h0a1,1,0,0,1,.78-1.27L2308,1519a1,1,0,0,1,1.27.78h0A1.06,1.06,0,0,1,2308.47,1521Z"/><path class="cls-44" d="M2309.68,1526.16l-13.87,3.28a1.05,1.05,0,0,1-1.27-.78h0a1,1,0,0,1,.78-1.27l13.88-3.29a1.06,1.06,0,0,1,1.27.79h0A1.07,1.07,0,0,1,2309.68,1526.16Z"/><rect class="cls-45" x="2300.34" y="1463.47" width="6.89" height="66.55" transform="translate(-282.71 570.61) rotate(-13.31)"/><rect class="cls-40" x="2234.92" y="1421.84" width="19.79" height="171.37" transform="translate(-372.61 828.63) rotate(-19.34)"/><rect class="cls-41" x="2248.72" y="1419.49" width="5.58" height="171.37" transform="translate(-371.46 830.74) rotate(-19.34)"/><rect class="cls-46" x="2247.02" y="1513.61" width="23.22" height="66.55" transform="translate(-384.87 835.43) rotate(-19.34)"/><rect class="cls-46" x="2221.01" y="1471.45" width="23.22" height="2.65" transform="translate(-361.79 822.61) rotate(-19.34)"/><rect class="cls-46" x="2206.05" y="1428.84" width="23.22" height="2.65" transform="translate(-348.53 815.28) rotate(-19.34)"/><path class="cls-47" d="M2256.13,1518.25l-13.45,4.72a1.06,1.06,0,0,1-1.35-.65h0a1.05,1.05,0,0,1,.65-1.34l13.45-4.72a1.05,1.05,0,0,1,1.35.64h0A1.06,1.06,0,0,1,2256.13,1518.25Z"/><path class="cls-47" d="M2257.87,1523.21l-13.45,4.72a1.05,1.05,0,0,1-1.35-.64h0a1.06,1.06,0,0,1,.65-1.35l13.46-4.72a1,1,0,0,1,1.34.64h0A1.06,1.06,0,0,1,2257.87,1523.21Z"/><path class="cls-47" d="M2259.62,1528.17l-13.46,4.72a1,1,0,0,1-1.34-.64h0a1.05,1.05,0,0,1,.64-1.35l13.46-4.72a1,1,0,0,1,1.34.64h0A1.05,1.05,0,0,1,2259.62,1528.17Z"/><path class="cls-47" d="M2261.36,1533.13l-13.46,4.72a1,1,0,0,1-1.34-.64h0a1.05,1.05,0,0,1,.64-1.35l13.46-4.72a1,1,0,0,1,1.34.64h0A1.05,1.05,0,0,1,2261.36,1533.13Z"/><path class="cls-47" d="M2263.1,1538.09l-13.46,4.72a1,1,0,0,1-1.34-.64h0a1.05,1.05,0,0,1,.64-1.35l13.46-4.72a1.05,1.05,0,0,1,1.35.64h0A1.06,1.06,0,0,1,2263.1,1538.09Z"/><path class="cls-47" d="M2264.84,1543.05l-13.45,4.72a1.05,1.05,0,0,1-1.35-.64h0a1.06,1.06,0,0,1,.65-1.35l13.45-4.72a1.05,1.05,0,0,1,1.35.64h0A1.06,1.06,0,0,1,2264.84,1543.05Z"/><path class="cls-47" d="M2266.58,1548l-13.45,4.72a1.05,1.05,0,0,1-1.35-.64h0a1.06,1.06,0,0,1,.65-1.35l13.45-4.72a1.05,1.05,0,0,1,1.35.64h0A1.06,1.06,0,0,1,2266.58,1548Z"/><path class="cls-47" d="M2268.32,1553l-13.45,4.72a1.05,1.05,0,0,1-1.35-.64h0a1.06,1.06,0,0,1,.65-1.35l13.45-4.72a1.06,1.06,0,0,1,1.35.65h0A1.05,1.05,0,0,1,2268.32,1553Z"/><path class="cls-47" d="M2270.06,1557.93l-13.45,4.73a1.07,1.07,0,0,1-1.35-.65h0a1.06,1.06,0,0,1,.65-1.35l13.45-4.72a1.06,1.06,0,0,1,1.35.65h0A1.05,1.05,0,0,1,2270.06,1557.93Z"/><path class="cls-47" d="M2271.81,1562.89l-13.46,4.73a1.07,1.07,0,0,1-1.35-.65h0a1.07,1.07,0,0,1,.65-1.35l13.46-4.72a1.05,1.05,0,0,1,1.34.65h0A1,1,0,0,1,2271.81,1562.89Z"/><path class="cls-47" d="M2273.55,1567.85l-13.46,4.73a1.05,1.05,0,0,1-1.34-.65h0a1.05,1.05,0,0,1,.64-1.35l13.46-4.72a1.05,1.05,0,0,1,1.34.65h0A1,1,0,0,1,2273.55,1567.85Z"/><path class="cls-47" d="M2275.29,1572.81l-13.46,4.73a1.05,1.05,0,0,1-1.34-.65h0a1.05,1.05,0,0,1,.64-1.35l13.46-4.72a1.05,1.05,0,0,1,1.34.65h0A1,1,0,0,1,2275.29,1572.81Z"/><rect class="cls-45" x="2262.89" y="1510.91" width="6.89" height="66.55" transform="translate(-383.54 837.82) rotate(-19.34)"/><path class="cls-48" d="M2256.28,1423.56l10.62,30.24a5.23,5.23,0,0,1-3.2,6.66l-63,22.13a5.22,5.22,0,0,1-6.67-3.2l-10.62-30.24a5.22,5.22,0,0,1,3.21-6.66l63-22.14A5.23,5.23,0,0,1,2256.28,1423.56Z"/><path class="cls-43" d="M2261.59,1438.68l5.31,15.12a5.23,5.23,0,0,1-3.2,6.66l-63,22.13a5.22,5.22,0,0,1-6.67-3.2l-5.31-15.12Z"/><path class="cls-43" d="M2565.6,1412.18c-8.94-1.63-7.6-8.8-7.6-8.8l3.09-12.91-1.36-.33-2.9,12.15-2.06,8.57S2574.54,1413.8,2565.6,1412.18Z"/><path class="cls-43" d="M2533.63,1536.91c-5.67-1-7.12,2.91-7.12,2.91l-2.05,8.55-.9-.22,1.93-8,1.36-5.67S2539.54,1538,2533.63,1536.91Z"/><rect class="cls-48" x="2488.08" y="1468.75" width="119.76" height="15.77" transform="translate(518.81 3610.91) rotate(-76.54)"/><path class="cls-48" d="M2576.62,1394.19l-3.15,13.16a6.53,6.53,0,0,1-7.87,4.83l-4.19-1a6.53,6.53,0,0,1-4.83-7.87l3.15-13.17a17.42,17.42,0,1,0,16.89,4Z"/><path class="cls-48" d="M2536.12,1526.12a13.21,13.21,0,0,0-12.58,22l1.83-7.63a5.33,5.33,0,0,1,6.43-4l3.43.82a5.34,5.34,0,0,1,3.95,6.44l-1.83,7.62a13.21,13.21,0,0,0-1.23-25.33Z"/><path class="cls-43" d="M2536.64,1523.91h0a2,2,0,0,1-1.49-2.43l22.36-93.42a2,2,0,0,1,2.43-1.49h0a2,2,0,0,1,1.5,2.43l-22.36,93.42A2,2,0,0,1,2536.64,1523.91Z"/><path class="cls-49" d="M2536.16,1521.72l22.36-93.42a2,2,0,0,1,1.91-1.55,1.9,1.9,0,0,0-.49-.18,2,2,0,0,0-2.43,1.49l-22.36,93.42a2,2,0,0,0,1.49,2.43,1.89,1.89,0,0,0,.52.06A2,2,0,0,1,2536.16,1521.72Z"/><path class="cls-48" d="M2602.75,1425.86h0a6.42,6.42,0,0,0-8.64,2.82L2540,1534.91a6.43,6.43,0,0,0,2.81,8.64h0a6.43,6.43,0,0,0,8.64-2.81l54.08-106.23A6.44,6.44,0,0,0,2602.75,1425.86Zm-58.41,114.74a3.64,3.64,0,1,1,4.9-1.59A3.64,3.64,0,0,1,2544.34,1540.6Z"/><path class="cls-43" d="M2607,1420.33c-3.54-2.06-1.37-8.16-1.37-8.16l17.21-9.47.42,1.58s-12.89,7.27-14.15,8.38S2605.39,1416.57,2607,1420.33Z"/><path class="cls-48" d="M2616.88,1422.91a7.21,7.21,0,0,1-9.86-2.58h0a7.21,7.21,0,0,1,2.58-9.86l13.26-7.77c-4.87-1.1-19.85-3.47-30.27,6,0,0-3.78,22.59,3.44,25a12.49,12.49,0,0,1,5.46,3.61s12.72.73,22.6-15.72a20,20,0,0,0,1.87-4Z"/><path class="cls-43" d="M2550.67,1528.16h0a2,2,0,0,1-.88-2.71l43.1-84.66a2,2,0,0,1,2.71-.89h0a2,2,0,0,1,.89,2.72l-43.1,84.66A2,2,0,0,1,2550.67,1528.16Z"/><path class="cls-49" d="M2550.9,1526l43.09-84.66a2,2,0,0,1,2.12-1.08,2,2,0,0,0-.51-.37,2,2,0,0,0-2.71.89l-43.1,84.66a2,2,0,0,0,1.48,2.91A2,2,0,0,1,2550.9,1526Z"/><path class="cls-49" d="M2543.05,1536.63a3.64,3.64,0,0,1,6.53.08,3.64,3.64,0,0,0-6.83-1,3.62,3.62,0,0,0,0,3.24A3.6,3.6,0,0,1,2543.05,1536.63Z"/><rect class="cls-50" x="2442.52" y="1436.29" width="77.74" height="2.29" transform="translate(828.11 3780.55) rotate(-84.88)"/><path class="cls-44" d="M2483.5,1557.25c-2.08,1.74-9.06,1.12-10.8-1-8.64-10.35,6-66.35,6-66.35l10.8,1S2493.85,1548.61,2483.5,1557.25Z"/><path class="cls-51" d="M2489.45,1490.91l-10.8-1s-.23.9-.62,2.49l6.61.59s4.09,53.65-4.89,65.24a6.5,6.5,0,0,0,3.75-1C2493.85,1548.61,2489.45,1490.91,2489.45,1490.91Z"/><path class="cls-44" d="M2490.74,1487.54l-12.76-1.15a1.75,1.75,0,0,0-1.89,1.58h0a1.74,1.74,0,0,0,1.58,1.88l12.76,1.15a1.75,1.75,0,0,0,1.89-1.58h0A1.74,1.74,0,0,0,2490.74,1487.54Z"/><path class="cls-50" d="M2475.23,1482.91a3.22,3.22,0,0,1,3.49-2.92l42.42,3.81a14.24,14.24,0,0,0,15.43-12.9l5.25-58.48a14.25,14.25,0,0,0-12.9-15.44l-42.41-3.8a3.22,3.22,0,1,1,.57-6.41l42.42,3.8a20.69,20.69,0,0,1,18.73,22.42l-5.24,58.49a20.69,20.69,0,0,1-22.43,18.73l-42.41-3.8A3.23,3.23,0,0,1,2475.23,1482.91Z"/><rect class="cls-50" x="2486.83" y="1395.18" width="8.16" height="2.63" transform="matrix(-0.09, 1, -1, -0.09, 4104.29, -959.73)"/><rect x="2483.75" y="1397.8" width="11.05" height="1.32" transform="translate(4843.71 3013.65) rotate(-174.88)"/><rect x="2476.75" y="1475.89" width="11.05" height="1.32" transform="translate(4822.8 3168.83) rotate(-174.88)"/><rect class="cls-50" x="2479.44" y="1477.63" width="8.16" height="2.63" transform="matrix(-0.09, 1, -1, -0.09, 4178.31, -862.59)"/><path class="cls-52" d="M2410.37,1423.87l-2.57-.3-1.43,12.54c.89.93,1.29,3.93.89,7.39s-1.45,6.3-2.53,7l-.73,6.35-1.48,13.05,11.72,1.34,1.49-13Z"/><path class="cls-52" d="M2402.69,1443c.39-3.46,1.45-6.29,2.53-7l1.43-12.54-2.57-.29-12.95,32.24-1.49,13,11.73,1.34,1.49-13,.72-6.35C2402.69,1449.44,2402.29,1446.45,2402.69,1443Z"/><rect class="cls-52" x="2389.81" y="1469.84" width="8.35" height="10.08" transform="translate(657.54 3686.48) rotate(-83.5)"/><rect class="cls-52" x="2404.4" y="1471.5" width="8.35" height="10.08" transform="translate(668.87 3702.48) rotate(-83.5)"/><path class="cls-53" d="M2410.89,1471.83c-.36,3.21-4.71,5.35-9.72,4.78s-8.76-3.63-8.39-6.84,4.72-5.36,9.72-4.79S2411.26,1468.62,2410.89,1471.83Z"/><path class="cls-54" d="M2409.59,1468.26a4.19,4.19,0,0,1,.55,2.52c-.37,3.21-4.72,5.35-9.72,4.78a11.22,11.22,0,0,1-7.09-3.27c1.2,2.16,4.19,3.91,7.84,4.32,5,.57,9.36-1.57,9.72-4.78A4.58,4.58,0,0,0,2409.59,1468.26Z"/><path class="cls-55" d="M2379,1564.89a6.44,6.44,0,0,1-5.3-3.82,68.54,68.54,0,0,1-.34-51.58,74.55,74.55,0,0,1,12.3-21.13,6.78,6.78,0,0,1,8.93-.73,5.43,5.43,0,0,1,1,8.11,64.82,64.82,0,0,0-10.39,18.17c-5.55,14.61-5.42,29.2.38,43.36a5.52,5.52,0,0,1-3.72,7.34A6.75,6.75,0,0,1,2379,1564.89Z"/><path class="cls-24" d="M2398.79,1489.68c.17-1.51.35-3,.52-4.53l.63-5.51c0-.1,0-.13,0-.18a1.7,1.7,0,0,0-.51,0l-2.35-.27-6.75-.77-2.42-.28a1.92,1.92,0,0,0-.53-.06c-.07,0-.05,0-.06.15q-.33,2.86-.65,5.71c-.11.9-.21,1.79-.31,2.69a3.75,3.75,0,0,1-.05.47,3.7,3.7,0,0,1-.25.43c-.13.2-.25.41-.37.62l-.7,1.24c-2,3.66-3.87,7.42-5.54,11.26a123.4,123.4,0,0,0-4.6,12.33,101.17,101.17,0,0,0-3.16,13,75.81,75.81,0,0,0-1.17,13.45,59.49,59.49,0,0,0,1.48,13.17,50,50,0,0,0,1.91,6.36,23,23,0,0,0,1.21,2.9,6.18,6.18,0,0,0,1.71,2c2.92,2.15,7.55,1.67,9.52-1.52a5.27,5.27,0,0,0,.54-4.41c-.14-.45-.35-.88-.53-1.32s-.42-1.07-.62-1.61c-.35-1-.65-1.94-.91-2.92a49.2,49.2,0,0,1-1.6-13.13,67,67,0,0,1,1.43-13,100.67,100.67,0,0,1,3.38-12.29,119,119,0,0,1,4.78-11.78,92.5,92.5,0,0,1,5.22-9.9l.38-.58a2.34,2.34,0,0,0,.26-.43,2.79,2.79,0,0,0,.07-.58Z"/><path class="cls-55" d="M2402.9,1567.61a6.7,6.7,0,0,1-2.74-.92,5.52,5.52,0,0,1-2-8c21.3-30.11,4.27-61.88,4.09-62.19a5.44,5.44,0,0,1,2.82-7.69,6.77,6.77,0,0,1,8.53,2.72,74.24,74.24,0,0,1,7.23,23.36,68.5,68.5,0,0,1-11.93,50.18A6.43,6.43,0,0,1,2402.9,1567.61Z"/><path class="cls-24" d="M2409.57,1562.41a55.21,55.21,0,0,0,6.48-14.37,74.24,74.24,0,0,0,2.72-15.73,99.36,99.36,0,0,0-.21-15.81,127,127,0,0,0-2.33-15.3q-.78-3.65-1.77-7.24c-.3-1.11-.62-2.21-1-3.31a2,2,0,0,1-.15-.59c0-.11,0-.23,0-.35.27-2.4.55-4.8.82-7.2,0-.39.09-.78.13-1.17,0-.15.07-.19,0-.24a2.52,2.52,0,0,0-.73-.08l-1.39-.16-7.85-.89-2.42-.28c-.14,0-.14,0-.19,0a1.06,1.06,0,0,0,0,.31l-.06.56c-.28,2.49-.57,5-.85,7.48l-.21,1.78a3.26,3.26,0,0,0-.06,1.35l.34,1c.27.79.51,1.59.74,2.39.55,1.87,1,3.75,1.49,5.65q1,4,1.65,8.13c.55,3.3,1,6.62,1.24,9.95a93.55,93.55,0,0,1,.23,11,67.86,67.86,0,0,1-1.35,11.28,50.23,50.23,0,0,1-3.52,10.83,42.15,42.15,0,0,1-2.75,5c-.52.8-1.12,1.55-1.64,2.36a5.35,5.35,0,0,0-.82,2.61,5.73,5.73,0,0,0,2.39,4.78,7,7,0,0,0,6.51.91,6.27,6.27,0,0,0,2.42-1.64,23.94,23.94,0,0,0,2.15-3C2409.69,1562.24,2409.38,1562.71,2409.57,1562.41Z"/><path class="cls-56" d="M2398.73,1490.25l.06-.57c.17-1.51.35-3,.52-4.53l.63-5.51c0-.1,0-.13,0-.18s-1.21,11.38-2.67,11.21a2.9,2.9,0,0,0-1.14.33c-.13.19-.25.39-.37.58a90.81,90.81,0,0,0-5.23,9.9,119,119,0,0,0-4.78,11.78,100.67,100.67,0,0,0-3.38,12.29,67,67,0,0,0-1.43,13,49.25,49.25,0,0,0,1.6,13.13c.26,1,.57,2,.91,2.92.2.54.4,1.08.62,1.61s.39.87.53,1.32a5.27,5.27,0,0,1-.54,4.41,6.18,6.18,0,0,1-5.07,2.82,6.53,6.53,0,0,0,7.36-2.56,5.27,5.27,0,0,0,.54-4.41c-.14-.45-.35-.88-.53-1.32s-.42-1.07-.62-1.61c-.35-1-.65-1.94-.91-2.92a49.2,49.2,0,0,1-1.6-13.13,67,67,0,0,1,1.43-13,100.67,100.67,0,0,1,3.38-12.29,119,119,0,0,1,4.78-11.78,92.5,92.5,0,0,1,5.22-9.9l.38-.58a2.34,2.34,0,0,0,.26-.43A2.79,2.79,0,0,0,2398.73,1490.25Z"/><path class="cls-56" d="M2400.48,1490.45l.06-.57c.17-1.51.35-3,.52-4.54l.63-5.5c0-.1,0-.14,0-.17s-1.37,11.36.08,11.52a3.09,3.09,0,0,1,1,.57c.08.22.16.44.23.66a94.2,94.2,0,0,1,2.87,10.82,118.74,118.74,0,0,1,2,12.55,98.57,98.57,0,0,1,.52,12.74,66.89,66.89,0,0,1-1.53,13,49.48,49.48,0,0,1-4.51,12.43c-.48.9-1,1.79-1.55,2.64-.31.48-.63,1-1,1.43s-.58.76-.82,1.16a5.32,5.32,0,0,0-.46,4.42,6.19,6.19,0,0,0,4.3,3.9,6.54,6.54,0,0,1-6.59-4.16,5.32,5.32,0,0,1,.46-4.42c.25-.4.54-.77.82-1.16s.65-1,1-1.43c.56-.86,1.07-1.74,1.55-2.64a49.62,49.62,0,0,0,4.51-12.43,66.9,66.9,0,0,0,1.54-13,100.4,100.4,0,0,0-.53-12.74,118.74,118.74,0,0,0-2-12.55,91.67,91.67,0,0,0-2.87-10.82c-.07-.22-.15-.44-.23-.66a2.6,2.6,0,0,1-.16-.47A2.87,2.87,0,0,1,2400.48,1490.45Z"/><polygon class="cls-37" points="2336.19 1475.44 2316.45 1480.1 2305.02 1431.61 2327.54 1438.79 2336.19 1475.44"/><polygon class="cls-57" points="2330.5 1475.3 2335.86 1474.03 2327.54 1438.79 2321.43 1436.84 2330.5 1475.3"/><rect class="cls-39" x="2322.34" y="1468.12" width="24.52" height="89.52" transform="translate(-284.97 576.4) rotate(-13.27)"/><path class="cls-15" d="M2356.81,1553.63l-23.86,5.63,2.2,9.36a3.4,3.4,0,0,0,4.09,2.52l17.25-4.06a3.41,3.41,0,0,0,2.53-4.1Z"/><g class="cls-58"><path class="cls-59" d="M2331.52,1467.62l20.55,87.13,2.21,9.35a3.41,3.41,0,0,1-2.53,4.1l4.74-1.12a3.41,3.41,0,0,0,2.53-4.1l-2.21-9.35-20.55-87.13Z"/></g><path class="cls-37" d="M2338.62,1529.92h0a3.52,3.52,0,0,1-4.24-2.62l-11-46.69a3.54,3.54,0,0,1,2.63-4.25h0a3.53,3.53,0,0,1,4.25,2.63l11,46.69A3.52,3.52,0,0,1,2338.62,1529.92Z"/><rect class="cls-15" x="2333.67" y="1513.6" width="9.27" height="29.88" rx="2.17" transform="translate(-288.48 577.68) rotate(-13.27)"/><path class="cls-60" d="M2338.35,1517.55l-5,1.18a.65.65,0,0,1-.78-.48h0a.65.65,0,0,1,.48-.77l5-1.18a.63.63,0,0,1,.77.47h0A.65.65,0,0,1,2338.35,1517.55Z"/><path class="cls-60" d="M2339.21,1521.17l-5,1.18a.63.63,0,0,1-.77-.47h0a.65.65,0,0,1,.48-.78l5-1.18a.64.64,0,0,1,.77.48h0A.63.63,0,0,1,2339.21,1521.17Z"/><path class="cls-60" d="M2340.06,1524.79l-5,1.19a.66.66,0,0,1-.78-.48h0a.66.66,0,0,1,.48-.78l5-1.18a.65.65,0,0,1,.78.48h0A.64.64,0,0,1,2340.06,1524.79Z"/><path class="cls-60" d="M2340.91,1528.42l-5,1.18a.64.64,0,0,1-.77-.48h0a.64.64,0,0,1,.48-.77l5-1.19a.64.64,0,0,1,.77.48h0A.64.64,0,0,1,2340.91,1528.42Z"/><path class="cls-60" d="M2341.77,1532l-5,1.18a.65.65,0,0,1-.78-.48h0a.65.65,0,0,1,.48-.77l5-1.18a.65.65,0,0,1,.78.48h0A.64.64,0,0,1,2341.77,1532Z"/><path class="cls-60" d="M2342.62,1535.66l-5,1.19a.65.65,0,0,1-.77-.48h0a.65.65,0,0,1,.48-.78l5-1.18a.64.64,0,0,1,.77.48h0A.64.64,0,0,1,2342.62,1535.66Z"/><path class="cls-60" d="M2343.48,1539.29l-5,1.18a.65.65,0,0,1-.78-.48h0a.64.64,0,0,1,.48-.77l5-1.19a.65.65,0,0,1,.78.48h0A.65.65,0,0,1,2343.48,1539.29Z"/><path class="cls-23" d="M2460.41,1536.73c-1.92,1.56-8.27.89-9.83-1-7.73-9.54,6.33-60.36,6.33-60.36l9.83,1S2470,1529,2460.41,1536.73Z"/><path class="cls-61" d="M2466.74,1476.37l-9.83-1s-.22.81-.6,2.26l6,.63s3,48.93-5.35,59.36a5.91,5.91,0,0,0,3.43-.86C2470,1529,2466.74,1476.37,2466.74,1476.37Z"/><path class="cls-23" d="M2468,1473.31l-11.61-1.22a1.58,1.58,0,0,0-1.74,1.41h0a1.58,1.58,0,0,0,1.41,1.74l11.61,1.22a1.58,1.58,0,0,0,1.74-1.41h0A1.58,1.58,0,0,0,2468,1473.31Z"/><polygon class="cls-62" points="2474.53 1409.52 2471.47 1409.2 2466.22 1408.65 2463.16 1408.33 2465.46 1415.88 2459.53 1472.43 2464.78 1472.98 2470.71 1416.43 2474.53 1409.52"/><path class="cls-39" d="M2292.44,1569.18c-1,1.8-6.15,3.23-7.94,2.22-8.92-5-13.6-48.77-13.6-48.77l7.94-2.21S2297.47,1560.26,2292.44,1569.18Z"/><path class="cls-63" d="M2278.84,1520.42l-7.94,2.21s.08.71.23,1.94l4.86-1.36s17.32,37,14.05,47.69a4.92,4.92,0,0,0,2.4-1.72C2297.47,1560.26,2278.84,1520.42,2278.84,1520.42Z"/><path class="cls-39" d="M2278.86,1517.68l-9.39,2.61a1.32,1.32,0,0,0-.91,1.63h0a1.32,1.32,0,0,0,1.62.92l9.38-2.62a1.32,1.32,0,0,0,.92-1.63h0A1.31,1.31,0,0,0,2278.86,1517.68Z"/><polygon class="cls-62" points="2264.4 1466.18 2261.92 1466.87 2257.68 1468.06 2255.21 1468.74 2259.31 1473.89 2272.05 1519.58 2276.28 1518.39 2263.55 1472.71 2264.4 1466.18"/><path class="cls-31" d="M2606.54,1524.16v81.21a15.63,15.63,0,0,1-15.63,15.63H2241.13a15.63,15.63,0,0,1-15.64-15.63v-81.21Z"/><rect class="cls-34" x="2225.49" y="1524.16" width="381.05" height="6.28"/><rect class="cls-34" x="2268.29" y="1527.34" width="46.97" height="10.98"/><rect class="cls-64" x="2280.58" y="1531.6" width="22.38" height="31.33"/><rect class="cls-40" x="2282.75" y="1531.6" width="18.04" height="26.48"/><polygon class="cls-18" points="2284.16 1555.43 2284.16 1531.61 2282.75 1531.61 2282.75 1558.08 2300.79 1558.08 2300.79 1555.43 2284.16 1555.43"/><rect class="cls-53" x="2279.53" y="1530.44" width="24.49" height="2.5" rx="1.09"/><path class="cls-64" d="M2298.06,1549.41h-12.35a.73.73,0,0,1-.73-.74h0a.73.73,0,0,1,.73-.73h12.35a.74.74,0,0,1,.74.73h0A.74.74,0,0,1,2298.06,1549.41Z"/><path class="cls-64" d="M2298.06,1545.29h-12.35a.73.73,0,0,1-.73-.73h0a.73.73,0,0,1,.73-.74h12.35a.74.74,0,0,1,.74.74h0A.74.74,0,0,1,2298.06,1545.29Z"/><path class="cls-64" d="M2298.06,1537.06h-12.35a.73.73,0,0,1-.73-.74h0a.73.73,0,0,1,.73-.73h12.35a.74.74,0,0,1,.74.73h0A.74.74,0,0,1,2298.06,1537.06Z"/><path class="cls-64" d="M2298.06,1541.17h-12.35a.73.73,0,0,1-.73-.73h0a.73.73,0,0,1,.73-.74h12.35a.74.74,0,0,1,.74.74h0A.74.74,0,0,1,2298.06,1541.17Z"/><path class="cls-64" d="M2298.06,1553.52h-12.35a.73.73,0,0,1-.73-.73h0a.73.73,0,0,1,.73-.74h12.35a.74.74,0,0,1,.74.74h0A.74.74,0,0,1,2298.06,1553.52Z"/><rect class="cls-64" x="2280.58" y="1531.6" width="22.38" height="31.33"/><rect class="cls-40" x="2282.75" y="1531.6" width="18.04" height="26.48"/><polygon class="cls-18" points="2284.16 1555.43 2284.16 1531.61 2282.75 1531.61 2282.75 1558.08 2300.79 1558.08 2300.79 1555.43 2284.16 1555.43"/><rect class="cls-53" x="2279.53" y="1530.44" width="24.49" height="2.5" rx="1.09"/><path class="cls-64" d="M2298.06,1549.41h-12.35a.73.73,0,0,1-.73-.74h0a.73.73,0,0,1,.73-.73h12.35a.74.74,0,0,1,.74.73h0A.74.74,0,0,1,2298.06,1549.41Z"/><path class="cls-64" d="M2298.06,1545.29h-12.35a.73.73,0,0,1-.73-.73h0a.73.73,0,0,1,.73-.74h12.35a.74.74,0,0,1,.74.74h0A.74.74,0,0,1,2298.06,1545.29Z"/><path class="cls-64" d="M2298.06,1537.06h-12.35a.73.73,0,0,1-.73-.74h0a.73.73,0,0,1,.73-.73h12.35a.74.74,0,0,1,.74.73h0A.74.74,0,0,1,2298.06,1537.06Z"/><path class="cls-64" d="M2298.06,1541.17h-12.35a.73.73,0,0,1-.73-.73h0a.73.73,0,0,1,.73-.74h12.35a.74.74,0,0,1,.74.74h0A.74.74,0,0,1,2298.06,1541.17Z"/><path class="cls-64" d="M2298.06,1553.52h-12.35a.73.73,0,0,1-.73-.73h0a.73.73,0,0,1,.73-.74h12.35a.74.74,0,0,1,.74.74h0A.74.74,0,0,1,2298.06,1553.52Z"/><rect class="cls-34" x="2516.78" y="1527.34" width="46.97" height="10.98"/><rect class="cls-64" x="2529.07" y="1531.6" width="22.38" height="31.33"/><rect class="cls-40" x="2531.24" y="1531.6" width="18.04" height="26.48"/><polygon class="cls-18" points="2532.65 1555.43 2532.65 1531.61 2531.24 1531.61 2531.24 1558.08 2549.28 1558.08 2549.28 1555.43 2532.65 1555.43"/><rect class="cls-53" x="2528.02" y="1530.44" width="24.49" height="2.5" rx="1.09"/><path class="cls-64" d="M2546.55,1549.41H2534.2a.74.74,0,0,1-.73-.74h0a.73.73,0,0,1,.73-.73h12.35a.74.74,0,0,1,.74.73h0A.74.74,0,0,1,2546.55,1549.41Z"/><path class="cls-64" d="M2546.55,1545.29H2534.2a.73.73,0,0,1-.73-.73h0a.74.74,0,0,1,.73-.74h12.35a.74.74,0,0,1,.74.74h0A.74.74,0,0,1,2546.55,1545.29Z"/><path class="cls-64" d="M2546.55,1537.06H2534.2a.74.74,0,0,1-.73-.74h0a.73.73,0,0,1,.73-.73h12.35a.74.74,0,0,1,.74.73h0A.74.74,0,0,1,2546.55,1537.06Z"/><path class="cls-64" d="M2546.55,1541.17H2534.2a.73.73,0,0,1-.73-.73h0a.74.74,0,0,1,.73-.74h12.35a.74.74,0,0,1,.74.74h0A.74.74,0,0,1,2546.55,1541.17Z"/><path class="cls-64" d="M2546.55,1553.52H2534.2a.73.73,0,0,1-.73-.73h0a.74.74,0,0,1,.73-.74h12.35a.74.74,0,0,1,.74.74h0A.74.74,0,0,1,2546.55,1553.52Z"/><rect class="cls-64" x="2529.07" y="1531.6" width="22.38" height="31.33"/><rect class="cls-40" x="2531.24" y="1531.6" width="18.04" height="26.48"/><polygon class="cls-18" points="2532.65 1555.43 2532.65 1531.61 2531.24 1531.61 2531.24 1558.08 2549.28 1558.08 2549.28 1555.43 2532.65 1555.43"/><rect class="cls-53" x="2528.02" y="1530.44" width="24.49" height="2.5" rx="1.09"/><path class="cls-64" d="M2546.55,1549.41H2534.2a.74.74,0,0,1-.73-.74h0a.73.73,0,0,1,.73-.73h12.35a.74.74,0,0,1,.74.73h0A.74.74,0,0,1,2546.55,1549.41Z"/><path class="cls-64" d="M2546.55,1545.29H2534.2a.73.73,0,0,1-.73-.73h0a.74.74,0,0,1,.73-.74h12.35a.74.74,0,0,1,.74.74h0A.74.74,0,0,1,2546.55,1545.29Z"/><path class="cls-64" d="M2546.55,1537.06H2534.2a.74.74,0,0,1-.73-.74h0a.73.73,0,0,1,.73-.73h12.35a.74.74,0,0,1,.74.73h0A.74.74,0,0,1,2546.55,1537.06Z"/><path class="cls-64" d="M2546.55,1541.17H2534.2a.73.73,0,0,1-.73-.73h0a.74.74,0,0,1,.73-.74h12.35a.74.74,0,0,1,.74.74h0A.74.74,0,0,1,2546.55,1541.17Z"/><path class="cls-64" d="M2546.55,1553.52H2534.2a.73.73,0,0,1-.73-.73h0a.74.74,0,0,1,.73-.74h12.35a.74.74,0,0,1,.74.74h0A.74.74,0,0,1,2546.55,1553.52Z"/><path class="cls-65" d="M2606.54,1524.16v81.21a15.63,15.63,0,0,1-15.63,15.63H2241.13a15.63,15.63,0,0,1-15.64-15.63v-4.89h321.88a14.81,14.81,0,0,0,14.81-14.81v-61.51Z"/><path class="cls-66" d="M2606.54,1524.16v81.21a15.63,15.63,0,0,1-15.63,15.63h-20.8l-2.15-14.19a7,7,0,0,1,7-7l11.63-.77-5.93-33.23c-4.07.32-7.51,0-7.11-2,1.71-8.39,1.71-11.25,0-16.79a1.88,1.88,0,0,1-.06-.31c-19.58-.84-34.79-2.61-34.79-2.61V1538h-8.56a3.32,3.32,0,0,1-3.32-3.32v.95h-4a2.35,2.35,0,0,1-2.35-2.36v-7.6h-17.6a13.23,13.23,0,0,1-6.08-1.48Z"/><path class="cls-67" d="M2262.05,1591.7v16.78a20,20,0,0,1-.89,5.94,19.25,19.25,0,0,1-.68,1.84,20.15,20.15,0,0,1-2.4,4.18l-.37.48h-16.58a15.64,15.64,0,0,1-15.64-15.64v-33.57h8.43a5.23,5.23,0,0,1,5.23-5.23h1.66a10.45,10.45,0,0,1,9.93,7.21,19.82,19.82,0,0,1,3.05,1.82,21.15,21.15,0,0,1,2.67,2.32h0a21.57,21.57,0,0,1,1.8,2.15h0c.18.25.35.51.52.76l0,0,.47.76,0,.06c.15.25.29.5.43.76l0,.08.38.76.06.12c.11.25.22.49.32.74a.87.87,0,0,0,.07.17c.09.24.19.48.27.72l.08.21c.07.23.15.46.22.7a2.76,2.76,0,0,1,.08.27c.07.22.13.43.18.66s0,.22.08.33.1.4.14.61.05.27.07.4.07.38.1.57l.06.48c0,.17.05.33.06.5s0,.4.05.61l0,.39C2262,1591,2262.05,1591.35,2262.05,1591.7Z"/><rect class="cls-15" x="2204.32" y="1543.49" width="2.57" height="44.09"/><path class="cls-15" d="M2198.29,1543.49h8.6v4.07h-8.6a2,2,0,0,1-2-2h0A2,2,0,0,1,2198.29,1543.49Z"/><polygon class="cls-23" points="2215.81 1570.73 2197.71 1570.73 2197.71 1588.32 2215.81 1570.73"/><path class="cls-15" d="M2225.59,1575.21V1570a5.23,5.23,0,0,1,5.23-5.23h1.65a10.45,10.45,0,0,1,10.46,10.45h-17.34Z"/><rect class="cls-68" x="2196.97" y="1569.99" width="56.75" height="56.75" rx="19.99"/><path class="cls-15" d="M2200,1617.25a19.88,19.88,0,0,0,14.39,6.13h16.78a20,20,0,0,0,20-20v-16.78a20,20,0,0,0-3-10.5,19.92,19.92,0,0,1,5.59,13.86v16.79a20,20,0,0,1-20,20H2217A20,20,0,0,1,2200,1617.25Z"/><path class="cls-23" d="M2222.89,1615.81a17.62,17.62,0,1,1,20.07-17.54,18.41,18.41,0,0,1-.17,2.55A17.62,17.62,0,0,1,2222.89,1615.81Z"/><path class="cls-24" d="M2222.89,1615.81a17.62,17.62,0,0,1-15-19.9c18.56,13.67,12.25-8.08,35.06,2.36a18.41,18.41,0,0,1-.17,2.55A17.62,17.62,0,0,1,2222.89,1615.81Z"/><path class="cls-69" d="M2224.31,1605.75a7.46,7.46,0,1,1,8.5-7.43,7.85,7.85,0,0,1-.08,1.08A7.46,7.46,0,0,1,2224.31,1605.75Z"/><g class="cls-58"><path class="cls-70" d="M2563.47,1616l-4.14-10.64-1.92-4.94-6.08,2.37,1.92,4.94.59,1.52-2.56,1a.63.63,0,0,0-.63-.08.61.61,0,0,0-.41.49l-1,.38a.6.6,0,0,0-.64-.08.61.61,0,0,0-.41.49l-1,.38a.61.61,0,0,0-.63-.09.62.62,0,0,0-.41.5l-1,.38a.61.61,0,0,0-.63-.09.64.64,0,0,0-.41.5l-1,.38a.62.62,0,0,0-.64-.09.61.61,0,0,0-.41.49l-1,.39a.61.61,0,0,0-.63-.09.59.59,0,0,0-.41.49l-1,.39a.61.61,0,0,0-.63-.09h0a.61.61,0,0,0-.41.49l-1,.38a.6.6,0,0,0-.64-.08.61.61,0,0,0-.41.49l-1,.38a.61.61,0,0,0-.63-.09.62.62,0,0,0-.41.5l-.2.07a1.09,1.09,0,0,0-.62,1.41l2.17,5.58a1.08,1.08,0,0,0,1.41.61l1.54-.6a.62.62,0,0,0,.64.09.58.58,0,0,0,.4-.49l1-.38a.66.66,0,0,0,1-.41l1-.38a.61.61,0,0,0,.63.09.64.64,0,0,0,.41-.5l1-.38a.62.62,0,0,0,.64.09.64.64,0,0,0,.41-.5l1-.38a.61.61,0,0,0,.63.09.62.62,0,0,0,.41-.5l1-.38a.66.66,0,0,0,1-.4l1-.39a.62.62,0,0,0,.64.09.61.61,0,0,0,.41-.49l1-.38a.63.63,0,0,0,.63.08.59.59,0,0,0,.41-.49l1-.38a.59.59,0,0,0,.63.08.61.61,0,0,0,.41-.49l1.21-.47-1.48-3.8,2.07,5.32,1.92,4.94,6.08-2.37Z"/><path class="cls-70" d="M2521.3,1618.14l0-2.75a.61.61,0,0,0,.31-.56.6.6,0,0,0-.3-.56v-1a.62.62,0,0,0,.31-.56.59.59,0,0,0-.3-.56V1611a.62.62,0,0,0,.32-.55.63.63,0,0,0-.31-.57v-1.05a.65.65,0,0,0,.32-.56.61.61,0,0,0-.31-.56v-1.06a.59.59,0,0,0,.32-.55.63.63,0,0,0-.31-.57v-1a.66.66,0,0,0,0-1.12v-1.05a.66.66,0,0,0,0-1.12v-1.06a.6.6,0,0,0,.32-.56.62.62,0,0,0-.31-.56l0-1a.62.62,0,0,0,.31-.56.59.59,0,0,0-.3-.56v-.22a1.08,1.08,0,0,0-1.08-1.09l-6-.06a1.08,1.08,0,0,0-1.1,1.07v1.66a.66.66,0,0,0,0,1.12v1.06a.6.6,0,0,0-.32.56.62.62,0,0,0,.31.56l0,1a.62.62,0,0,0-.31.56.59.59,0,0,0,.3.56v1.06a.6.6,0,0,0-.31.55.6.6,0,0,0,.3.57v1a.65.65,0,0,0-.32.56.61.61,0,0,0,.31.56v1.06a.62.62,0,0,0-.32.55.64.64,0,0,0,.31.57v1a.66.66,0,0,0,0,1.12v1a.66.66,0,0,0,0,1.12v1.06a.6.6,0,0,0-.32.56.62.62,0,0,0,.31.56l0,1.3,4.08,0-5.71-.06-5.3,0-.06,6.52,5.3.06,11.42.11,5.3,0,.06-6.52-5.3-.06Z"/></g><rect class="cls-71" x="2550.38" y="1602.85" width="5.3" height="6.52" transform="translate(3124.39 -1355.5) rotate(68.75)"/><rect class="cls-72" x="2550.35" y="1610.64" width="11.42" height="6.52" transform="translate(3133.54 -1353.36) rotate(68.74)"/><rect class="cls-73" x="2556.44" y="1618.43" width="5.3" height="6.52" transform="translate(3142.73 -1351.22) rotate(68.74)"/><path class="cls-73" d="M2538.43,1607.89h8.15a0,0,0,0,1,0,0v19a3.55,3.55,0,0,1-3.55,3.55H2542a3.55,3.55,0,0,1-3.55-3.55v-19A0,0,0,0,1,2538.43,1607.89Z" transform="translate(3129.45 -1337.44) rotate(68.74)"/><path class="cls-72" d="M2548.12,1621.25l-4.17-6.74a.54.54,0,0,1,.35-.75h0a.59.59,0,0,1,.71.18l4.17,6.74a.53.53,0,0,1-.35.74h0A.58.58,0,0,1,2548.12,1621.25Z"/><path class="cls-72" d="M2550.15,1620.46l-4.18-6.74a.53.53,0,0,1,.35-.74h0a.58.58,0,0,1,.71.17l4.18,6.74a.53.53,0,0,1-.35.74h0A.58.58,0,0,1,2550.15,1620.46Z"/><path class="cls-72" d="M2552.17,1619.67l-4.17-6.74a.54.54,0,0,1,.35-.74h0a.58.58,0,0,1,.71.17l4.17,6.74a.54.54,0,0,1-.35.75h0A.59.59,0,0,1,2552.17,1619.67Z"/><path class="cls-72" d="M2546.09,1622l-4.17-6.74a.55.55,0,0,1,.35-.75h0a.58.58,0,0,1,.71.18l4.17,6.73a.54.54,0,0,1-.35.75h0A.58.58,0,0,1,2546.09,1622Z"/><path class="cls-72" d="M2544.07,1622.82l-4.18-6.73a.55.55,0,0,1,.35-.75h0a.58.58,0,0,1,.71.18l4.18,6.73a.54.54,0,0,1-.35.75h0A.58.58,0,0,1,2544.07,1622.82Z"/><path class="cls-72" d="M2542,1623.61l-4.17-6.73a.54.54,0,0,1,.35-.75h0a.59.59,0,0,1,.71.17l4.17,6.74a.55.55,0,0,1-.35.75h0A.58.58,0,0,1,2542,1623.61Z"/><path class="cls-72" d="M2540,1624.4l-4.17-6.73a.54.54,0,0,1,.35-.75h0a.58.58,0,0,1,.71.17l4.17,6.74a.54.54,0,0,1-.35.75h0A.59.59,0,0,1,2540,1624.4Z"/><path class="cls-72" d="M2538,1625.19l-4.18-6.74a.53.53,0,0,1,.35-.74h0a.58.58,0,0,1,.71.17l4.18,6.74a.53.53,0,0,1-.35.74h0A.58.58,0,0,1,2538,1625.19Z"/><path class="cls-72" d="M2536,1626l-4.17-6.74a.53.53,0,0,1,.35-.74h0a.58.58,0,0,1,.71.17l4.17,6.74a.53.53,0,0,1-.35.74h0A.58.58,0,0,1,2536,1626Z"/><rect class="cls-71" x="2520.6" y="1620.19" width="5.3" height="6.52" transform="translate(5030.54 3271.44) rotate(-179.44)"/><rect class="cls-72" x="2509.18" y="1620.11" width="11.42" height="6.52" transform="translate(5013.84 3271.18) rotate(-179.44)"/><rect class="cls-73" x="2503.88" y="1620.03" width="5.3" height="6.52" transform="translate(4997.18 3270.86) rotate(-179.44)"/><path class="cls-73" d="M2511,1597.55h8.16a0,0,0,0,1,0,0v19a3.55,3.55,0,0,1-3.55,3.55h-1.05a3.55,3.55,0,0,1-3.55-3.55v-19A0,0,0,0,1,2511,1597.55Z" transform="translate(5014.22 3242.16) rotate(-179.44)"/><path class="cls-72" d="M2511,1613.27l7.8-1.38a.55.55,0,0,1,.57.61h0a.59.59,0,0,1-.43.59l-7.8,1.37c-.3.06-.57-.23-.57-.6h0A.59.59,0,0,1,2511,1613.27Z"/><path class="cls-72" d="M2511,1615.44l7.8-1.37a.54.54,0,0,1,.57.6h0a.61.61,0,0,1-.43.6l-7.8,1.37a.55.55,0,0,1-.57-.61h0A.59.59,0,0,1,2511,1615.44Z"/><path class="cls-72" d="M2511,1617.61l7.8-1.37a.54.54,0,0,1,.56.61h0a.57.57,0,0,1-.42.59l-7.81,1.37c-.3,0-.56-.23-.56-.6h0A.58.58,0,0,1,2511,1617.61Z"/><path class="cls-72" d="M2511,1611.09l7.81-1.37c.3,0,.56.23.56.6h0a.6.6,0,0,1-.43.6l-7.8,1.37a.55.55,0,0,1-.57-.61h0A.59.59,0,0,1,2511,1611.09Z"/><path class="cls-72" d="M2511.06,1608.92l7.81-1.37c.3-.06.56.23.56.6h0a.57.57,0,0,1-.43.59l-7.8,1.37c-.3.06-.57-.23-.56-.6h0A.57.57,0,0,1,2511.06,1608.92Z"/><path class="cls-72" d="M2511.08,1606.74l7.81-1.37c.3,0,.56.23.56.6h0a.58.58,0,0,1-.43.6l-7.8,1.37a.53.53,0,0,1-.56-.6h0A.58.58,0,0,1,2511.08,1606.74Z"/><path class="cls-72" d="M2511.1,1604.57l7.81-1.37c.3-.06.57.23.56.6h0a.57.57,0,0,1-.42.59l-7.81,1.37c-.3.06-.57-.23-.56-.6h0A.57.57,0,0,1,2511.1,1604.57Z"/><path class="cls-72" d="M2511.13,1602.39l7.8-1.37a.53.53,0,0,1,.56.6h0a.58.58,0,0,1-.42.6l-7.81,1.37c-.3.05-.56-.23-.56-.6h0A.58.58,0,0,1,2511.13,1602.39Z"/><path class="cls-72" d="M2511.15,1600.22l7.8-1.37c.3-.06.57.23.56.6h0a.57.57,0,0,1-.42.59l-7.81,1.38c-.3,0-.56-.24-.56-.61h0A.57.57,0,0,1,2511.15,1600.22Z"/><rect class="cls-18" x="2274.08" y="1355.13" width="34.71" height="3.18"/><rect class="cls-18" x="2522.91" y="1355.13" width="34.71" height="3.18"/><path class="cls-74" d="M2503.38,1509.58h-37.11a.82.82,0,0,1-.43-.12l-2.63-1.51a.85.85,0,0,1,0-1.48l2.63-1.51a.92.92,0,0,1,.43-.11h37.11Z"/><polygon class="cls-75" points="2622.05 1612.8 2592.85 1612.8 2577.19 1525.03 2606.38 1525.03 2622.05 1612.8"/><path class="cls-76" d="M2595.54,1541.88v16.79s-20.06,4.68-19.1,0c1.7-8.4,1.7-11.25,0-16.79-.32-1,.46-1.59,1.86-1.85C2583.17,1539.13,2595.54,1541.88,2595.54,1541.88Z"/><path class="cls-74" d="M2576.44,1558.67c1.7-8.4,1.7-11.25,0-16.79-.32-1,.46-1.59,1.86-1.85C2585.65,1548.67,2576.44,1558.67,2576.44,1558.67Z"/><path class="cls-77" d="M2529.71,1530.43h-4a2.36,2.36,0,0,1-2.36-2.36v-38.76a2.36,2.36,0,0,1,2.36-2.36h4Z"/><rect class="cls-76" x="2529.71" y="1484.58" width="29.24" height="48.22" rx="3.32"/><polygon class="cls-78" points="2626.73 1612.8 2597.54 1612.8 2581.88 1525.03 2611.07 1525.03 2626.73 1612.8"/><path class="cls-76" d="M2523.31,1520.46h-17.59a13.25,13.25,0,0,1-13.25-13.25h0a13.25,13.25,0,0,1,13.25-13.25h17.59Z"/><path class="cls-78" d="M2626.13,1626.74h-45.55a7,7,0,0,1-7-7l-2.74-18.09a7,7,0,0,1,7-7l48.29-3.2a7,7,0,0,1,7,7v21.29A7,7,0,0,1,2626.13,1626.74Z"/><path class="cls-79" d="M2657.65,1529.6c-20.52,20.52-116.06,9.36-116.06,9.36v-55.75s96.43-10.78,116.06,10.75C2665.23,1502.27,2665.6,1521.65,2657.65,1529.6Z"/><path class="cls-80" d="M2650.35,1525.75c-17.8,16.22-108.76,7.4-108.76,7.4v-44.06s91.73-8.52,108.76,8.5C2656.92,1504.16,2657.25,1519.47,2650.35,1525.75Z"/><path class="cls-74" d="M2578,1601.34a1.6,1.6,0,1,1-1.6-1.6A1.6,1.6,0,0,1,2578,1601.34Z"/><path class="cls-13" d="M565,1258.41l0-.07c-8.45-21.89-17.27-44.75-25-66.33h0l21.47-10.69-15,16.14Z"/><path class="cls-25" d="M1596.62,1090.48c3.23-42.32,5.29-70.66-.53-100.63a340.39,340.39,0,0,1-5.45-47.87v-.05c-2.14-43.47,15.17-98.2,23.38-100.26s15.38-3,18.37-3.66c-2,.76-30.27,61.86-22.78,91.12l81.46,6.68c12.92-41.74,41.54-94.93,41.54-94.93,10.56,2,15.27,4.64,15.27,4.64-.86,6-8.5,18.2-9.83,24.71-25.84,127.27-10.62,140.53-12.43,172.44-.28,4.84-1.49,8.74,3,11.8,6.67,4.6,25,7.35,30.33,8.62.36.08,1.51,71.76,4,123.05,1.28,26.33-153.26,35.74-180.76,17.89C1595.82,1150.3,1596.35,1094,1596.62,1090.48Z"/><path class="cls-13" d="M1683.45,1019.21l-64.3-3s-1.93,28.39-12.33,40.93v47.58l38.26,1.28h61.23v-41.41S1678.64,1063.27,1683.45,1019.21Z"/><path class="cls-16" d="M1669.73,1051.79l-107.6,46.33,1.92,23.22,126.6-28s40.85-43.23,62.41-83.21c19-35.29,47.3-128.9,28.89-146.18-20.06-18.83-29.37-12.39-40.89,13.49C1716.6,932.31,1691.34,999.35,1669.73,1051.79Z"/><path class="cls-24" d="M1530,1104.23l-18.49-17.14a2.53,2.53,0,0,1,3.76-2.89l37.55,13Z"/><path class="cls-24" d="M1578.4,1122.87s-39.93,11.6-54.37,12.87c-10.74,1-35.38-5.94-35.38-5.94-1.72-1-21.34-20-17.7-24.46,9.41-11.65,56.24-4.41,56.24-4.41s13-8.48,21.41-6l28.2-8.1Z"/><path class="cls-23" d="M1774.37,977.5c2.28-4.23,28.12-96.33,11.7-114.77-21.81-24.47-36-11.35-51.68,12.25-13.77,20.75-18.75,45.9-29.21,73.18C1720.09,965.59,1752.3,970,1774.37,977.5Z"/><path class="cls-13" d="M1662.34,1223.13l-7.53,53.67c7.53-18.23,8.27-36.28,16.51-53.63v0l-26.11-19.1Z"/><path class="cls-16" d="M530.33,1054l100.09,60.87-5.14,22.73-121.46-45.41s-34.42-48.5-50.19-91.1c-13.92-37.59-28.88-134.23-8.24-148.78,22.49-15.85,30.81-8.17,38.62,19.06C500.57,929.14,516.24,999,530.33,1054Z"/><path class="cls-23" d="M443.72,992.07c-1.67-4.5-21.07-125.55-2.24-141.51,25-21.2,37.24-6.23,49.47,19.33,10.74,22.46,16.63,74.3,23.18,102.77C496.94,987.85,466.63,987.69,443.72,992.07Z"/><path class="cls-24" d="M661.36,1125.38,682.05,1111a2.53,2.53,0,0,0-3.31-3.39l-39,7.66Z"/><path class="cls-24" d="M610.39,1137.59s38.4,16.56,52.51,19.84c10.51,2.43,35.87-1,35.87-1,1.85-.76,23.91-16.78,20.94-21.75-7.7-12.85-55.08-12.21-55.08-12.21s-11.74-10.21-20.37-8.89l-25.85-10.68Z"/><path class="cls-81" d="M603.79,701.55s-57.59,18.7-123.32,28.06c-1.55.23.12-29.87.38-31.09,7.33-33.58,35.09-51.86,69.44-50.93a23,23,0,0,1,3.83.5l1.11.24,1.23.3c.84.21,1.73.47,2.65.77,1.38.44,2.84,1,4.37,1.56l1.56.64,1.57.7c1.07.47,2.16,1,3.26,1.56,0,0,0,0,0,0l1.6.86C586,662.6,601.93,677.43,603.79,701.55Z"/><path class="cls-82" d="M571.51,654.74l-1.6-.86s0,0,0,0c-1.1-.56-2.19-1.09-3.26-1.56l-1.57-.7-.7-.28c2.77,34.39-22.77,60.47-84.52,72.7,0,3.36.21,5.66.65,5.59,65.73-9.36,123.32-28.06,123.32-28.06C601.93,677.43,586,662.6,571.51,654.74Z"/><path class="cls-81" d="M532.49,719.74a2.42,2.42,0,0,1-.58-4.77L634.4,688.15a2.42,2.42,0,0,1,1.17,4.7L533.08,719.67A3,3,0,0,1,532.49,719.74Z"/><polygon class="cls-83" points="1489.73 649.22 1489.73 875.16 1157.74 1207.14 704.43 1207.14 704.43 1138.97 1194.18 649.22 1489.73 649.22"/><polygon class="cls-83" points="1139.06 649.22 704.43 1083.85 704.43 921.46 976.67 649.22 1139.06 649.22"/><path class="cls-84" d="M1002.17,601.82a37.13,37.13,0,0,0,2.05,5.48h389.47a27.72,27.72,0,0,0-16-12.08c-10.86-2.89-24.68,0-31.57-8.86-3.58-4.59-3.82-10.82-4.62-16.59-5.93-43-64.09-87.43-101.65-49.79-4.26,4.28-7.88,9.32-12.92,12.66-9.49,6.3-22.35,5.28-32.75.63s-19.07-12.38-28-19.48c-14.12-11.21-30.23-21.33-48.19-22.61s-37.82,9-42,26.55c-.89,3.75-1.08,7.71-2.59,11.25-5,11.55-20.3,12.88-32.47,16C1016.16,551.33,995.09,577.22,1002.17,601.82Z"/><path class="cls-18" d="M1649.11,730.69a3.44,3.44,0,1,1-3.38-3.5A3.43,3.43,0,0,1,1649.11,730.69Z"/><path class="cls-18" d="M1681.58,741.66a3.44,3.44,0,1,1-3.38-3.5A3.43,3.43,0,0,1,1681.58,741.66Z"/><path class="cls-14" d="M1657,715.94l-1.3,5.5c-2.94-3.15-12.12-9.33-15.45-11.32,1.08-3.22,1.31-2.59,1.31-2.59C1647,707.29,1657,715.94,1657,715.94Z"/><path class="cls-14" d="M1702.13,738.59c-4.74-12.28-27.13-13.92-27.13-13.92l-2,4.8S1691.11,730.75,1702.13,738.59Z"/><path class="cls-19" d="M1671.2,788.79a45.37,45.37,0,0,1-8.94,5.4c-4.16,1.88-9.19,3.24-13.74,2-4.92-1.32-8.62-6.13-11.18-10.94h0a57.08,57.08,0,0,1-4.46-11.35Z"/><path class="cls-2" d="M1665.9,786.51s0,3.06-7.33,1.51a55.55,55.55,0,0,1-13.21-4.58c-4.88-2.41-7.68-3.2-6.74-7.39Z"/><path class="cls-20" d="M1662.26,794.19c-4.16,1.88-9.19,3.24-13.74,2-4.92-1.32-8.62-6.13-11.18-10.94h0C1639.63,785.35,1655.78,790.69,1662.26,794.19Z"/><path class="cls-12" d="M1643.23,761.85c1.43,4.83,10.76,3.36,10.76,3.36s-10.12-1.94-10-8.44A5.45,5.45,0,0,0,1643.23,761.85Z"/><path class="cls-21" d="M1657.85,725.81s0,.81.08,2.23,0,3.43,0,5.83a44,44,0,0,1-1,8.1,22.29,22.29,0,0,1-1.42,4.27,10.49,10.49,0,0,1-2.56,3.64,8.09,8.09,0,0,1-1.8,1.23c-.63.28-1.41.55-2.16.81a11.35,11.35,0,0,0-4.28,2.56,4.71,4.71,0,0,0-1.25,2.28,4.26,4.26,0,0,0,.26,2.45,5.14,5.14,0,0,0,1.24,1.88,13.09,13.09,0,0,0,1.51,1.26,16.38,16.38,0,0,0,5.37,2.56,8.51,8.51,0,0,0,1.64.27l.59,0a9.68,9.68,0,0,1-2.12-.61,18.83,18.83,0,0,1-4.89-3,10.94,10.94,0,0,1-1.3-1.25,3.76,3.76,0,0,1-.87-1.55,3,3,0,0,1,.87-3.28,10.72,10.72,0,0,1,3.75-2.08c.75-.26,1.5-.49,2.34-.86a8.42,8.42,0,0,0,2.2-1.48,12.13,12.13,0,0,0,2.91-4.21,21.56,21.56,0,0,0,1.37-4.63,40.58,40.58,0,0,0,.54-8.38,52.65,52.65,0,0,0-.55-5.87C1658,726.6,1657.85,725.81,1657.85,725.81Z"/></g></g></svg>